<?xml version="1.0" encoding="UTF-8"?>
<svg id="Layer_2" data-name="Layer 2" xmlns="http://www.w3.org/2000/svg" viewBox="0 0 815.18 48.3">
  <defs>
    <style>
      .cls-1 {
        fill: #fff;
      }
    </style>
  </defs>
  <g id="assets">
    <g>
      <path class="cls-1" d="M0,.74h62.54v15.65h-23.41v31.71h-15.65v-31.71H0V.74Z"/>
      <path class="cls-1" d="M94.98,0c2.03,0,4.02.09,5.97.27,1.96.18,4.05.51,6.27.98s4.29,1.09,6.21,1.86c1.91.77,3.78,1.78,5.6,3.04,1.82,1.26,3.37,2.71,4.65,4.35s2.31,3.63,3.07,5.97c.76,2.34,1.14,4.9,1.14,7.69,0,3.64-.49,6.83-1.48,9.58-.99,2.74-2.39,5.04-4.18,6.88-1.8,1.84-4.07,3.34-6.81,4.49-2.74,1.15-5.73,1.97-8.97,2.46-3.24.5-6.9.74-11,.74-10.88,0-18.92-2.05-24.12-6.14-5.19-4.09-7.79-10.39-7.79-18.89,0-2.92.47-5.6,1.42-8.03.94-2.43,2.24-4.46,3.88-6.1,1.64-1.64,3.49-3.08,5.53-4.32,2.05-1.24,4.28-2.19,6.71-2.87,2.43-.68,4.78-1.17,7.05-1.49,2.27-.31,4.55-.47,6.85-.47ZM95.59,35.89c4.9,0,8.62-.89,11.17-2.67,2.54-1.78,3.81-4.8,3.81-9.07,0-1.58-.23-3-.67-4.28-.45-1.28-1.09-2.34-1.92-3.17s-1.73-1.54-2.7-2.12-2.05-1.02-3.24-1.32c-1.19-.29-2.32-.51-3.37-.64-1.06-.13-2.15-.2-3.27-.2s-2.14.08-3.17.24c-1.03.16-2.12.4-3.24.71-1.13.32-2.16.78-3.1,1.38-.95.61-1.8,1.31-2.56,2.12-.77.81-1.36,1.8-1.79,2.97s-.64,2.47-.64,3.91c0,2.74.53,5.02,1.58,6.81,1.06,1.8,2.67,3.14,4.83,4.02,2.16.88,4.92,1.31,8.3,1.31Z"/>
      <path class="cls-1" d="M208.86.74h15.65v47.36h-21.45l-23.21-28.54v28.54h-15.72V.74h21.92l22.8,28.06V.74Z"/>
      <path class="cls-1" d="M229.03.74h52.28v13.15h-36.57v4.18h34.27v12.61h-34.27v4.25h36.57v13.15h-52.28V.74Z"/>
      <path class="cls-1" d="M377.24.74l-19.84,47.15.07.2h-15.18l.07-.2-11.2-25.03-11.06,25.23h-15.18L284.82.74h16.59l11.06,26.78,11.06-26.78h15.05l11.2,26.51,10.93-26.51h16.53Z"/>
      <path class="cls-1" d="M457.24.74h15.72v47.36h-15.72v-16.46h-28.2v16.46h-15.72V.74h15.72v16.39h28.2V.74Z"/>
      <path class="cls-1" d="M478.02.74h52.28v13.15h-36.57v4.18h34.27v12.61h-34.27v4.25h36.57v13.15h-52.28V.74Z"/>
      <path class="cls-1" d="M534.55,48.1V.74h15.72v47.36h-15.72Z"/>
      <path class="cls-1" d="M580.35,20.37h38.59v27.73h-12.62v-4.92c-2.02,1.75-4.44,3.05-7.25,3.88-2.81.83-6.89,1.25-12.24,1.25-4,0-7.64-.26-10.89-.78-3.26-.52-6.06-1.27-8.4-2.26s-4.35-2.17-6.04-3.54c-1.69-1.37-3.03-2.95-4.05-4.72-1.01-1.78-1.75-3.65-2.23-5.63s-.71-4.16-.71-6.54c0-3.28.56-6.28,1.69-9.01,1.13-2.72,2.67-5.03,4.62-6.91,1.95-1.89,4.27-3.48,6.95-4.79,2.68-1.3,5.58-2.26,8.7-2.87s6.44-.91,9.95-.91c4.81,0,8.96.29,12.45.88,3.48.58,6.38,1.48,8.7,2.7,2.32,1.21,4.21,2.6,5.67,4.15s2.76,3.48,3.88,5.77l-14.7,4.92c-2.29-3.28-7.67-4.92-16.12-4.92-3.24,0-5.94.27-8.09.81-2.16.54-3.8,1.34-4.92,2.4-1.13,1.06-1.91,2.22-2.36,3.47-.45,1.26-.68,2.77-.68,4.52,0,1.62.2,3,.61,4.15.41,1.15,1.16,2.22,2.26,3.21,1.1.99,2.75,1.74,4.96,2.26,2.2.52,4.95.78,8.23.78,2.29,0,4.25-.1,5.87-.3s2.92-.53,3.91-.98c.99-.45,1.7-.83,2.12-1.15.43-.31.98-.81,1.65-1.49h-19.5v-11.13Z"/>
      <path class="cls-1" d="M667.65.74h15.72v47.36h-15.72v-16.46h-28.2v16.46h-15.72V.74h15.72v16.39h28.2V.74Z"/>
      <path class="cls-1" d="M688.16.74h62.54v15.65h-23.41v31.71h-15.65v-31.71h-23.47V.74Z"/>
      <path class="cls-1" d="M783.07.88c3.64,0,6.8.08,9.48.24s5.13.4,7.35.74,4.08.82,5.56,1.45c1.49.63,2.77,1.36,3.85,2.19,1.08.83,1.92,1.88,2.53,3.14.61,1.26,1.05,2.63,1.31,4.11.27,1.49.4,3.24.4,5.26h-16.73c0-.72-.13-1.28-.37-1.69-.25-.41-.8-.8-1.65-1.18s-2.2-.65-4.05-.81c-1.84-.16-4.27-.24-7.29-.24-4,0-6.93.09-8.77.27-1.84.18-3.01.4-3.51.68-.5.27-.74.74-.74,1.42.05.58.66.98,1.86,1.18s4.78.55,10.76,1.05c.09,0,.16.02.2.07,11.87.95,19.4,1.8,22.6,2.56,4.18.99,6.88,2.68,8.09,5.06.81,1.62,1.21,3.96,1.21,7.01,0,2.16-.15,3.94-.44,5.33-.29,1.39-.88,2.68-1.75,3.85-.88,1.17-2.01,2.08-3.41,2.73-1.39.65-3.33,1.21-5.8,1.65-2.47.45-5.3.75-8.47.91-3.17.16-7.12.24-11.84.24-3.24,0-6.04-.04-8.4-.13s-4.56-.25-6.61-.47c-2.04-.23-3.74-.52-5.09-.88-1.35-.36-2.56-.85-3.64-1.48-1.08-.63-1.92-1.32-2.53-2.06s-1.11-1.7-1.52-2.87c-.4-1.17-.68-2.41-.81-3.71s-.2-2.85-.2-4.66h16.26c0,1.03.28,1.77.85,2.19.56.43,1.75.74,3.57.94,1.82.2,4.78.3,8.87.3h1.62c5.13,0,8.24-.09,9.34-.27,1.1-.18,1.65-.76,1.65-1.75,0-.58-.38-.97-1.15-1.15-.77-.18-2.88-.38-6.34-.61-2.52-.18-4.61-.34-6.27-.47-3.01-.27-5.3-.48-6.85-.64-1.55-.16-3.46-.37-5.73-.64-2.27-.27-3.98-.56-5.13-.88s-2.47-.73-3.98-1.25c-1.51-.52-2.61-1.1-3.3-1.75-.7-.65-1.42-1.44-2.16-2.36-.74-.92-1.25-1.98-1.52-3.17-.27-1.19-.4-2.53-.4-4.01,0-1.8.12-3.37.37-4.72.25-1.35.68-2.55,1.28-3.61s1.28-1.97,2.02-2.73c.74-.76,1.75-1.42,3.04-1.95,1.28-.54,2.6-.97,3.95-1.28,1.35-.32,3.05-.56,5.09-.74,2.05-.18,4.06-.29,6.04-.34,1.98-.04,4.41-.07,7.29-.07Z"/>
    </g>
  </g>
</svg>