<?xml version="1.0" encoding="UTF-8"?>
<svg id="Layer_2" data-name="Layer 2" xmlns="http://www.w3.org/2000/svg" viewBox="0 0 866.76 79.6">
  <defs>
    <style>
      .cls-1 {
        fill: none;
        stroke: #231f20;
        stroke-miterlimit: 10;
        stroke-width: 1.69px;
      }
    </style>
  </defs>
  <g id="assets_saved">
    <g>
      <path class="cls-1" d="M.85,2.04h84.33v21.22H26.2v6.75h55.28v20.35H26.2v6.85h58.98v21.22H.85V2.04Z"/>
      <path class="cls-1" d="M196.71,2.04l-34.71,38.19,34.39,38.19h-34.17l-19.81-21.65-20.13,21.65h-34.17l34.71-38.19L88.44,2.04h34.17l19.91,21.65,20.02-21.65h34.17Z"/>
      <path class="cls-1" d="M235.01.85c3.26,0,6.47.15,9.63.44,3.16.29,6.53.82,10.12,1.58,3.59.76,6.93,1.76,10.01,2.99,3.08,1.23,6.09,2.87,9.03,4.9,2.94,2.03,5.44,4.37,7.51,7.02,2.07,2.65,3.72,5.86,4.95,9.63s1.85,7.91,1.85,12.4c0,5.88-.8,11.03-2.39,15.45-1.6,4.43-3.85,8.13-6.75,11.1-2.9,2.98-6.57,5.39-10.99,7.23-4.43,1.85-9.25,3.18-14.47,3.97-5.22.8-11.14,1.2-17.74,1.2-17.56,0-30.52-3.3-38.9-9.9-8.38-6.6-12.57-16.76-12.57-30.47,0-4.71.76-9.03,2.29-12.95,1.52-3.92,3.61-7.2,6.26-9.85,2.65-2.65,5.62-4.97,8.92-6.97,3.3-1.99,6.91-3.54,10.83-4.62,3.92-1.09,7.71-1.89,11.37-2.39,3.66-.51,7.35-.76,11.05-.76ZM235.99,58.73c7.91,0,13.91-1.43,18.01-4.3,4.1-2.87,6.15-7.74,6.15-14.64,0-2.54-.37-4.84-1.09-6.91-.73-2.07-1.76-3.77-3.1-5.12-1.34-1.34-2.79-2.48-4.35-3.43-1.56-.94-3.3-1.65-5.22-2.12-1.92-.47-3.74-.82-5.44-1.03-1.7-.22-3.46-.33-5.28-.33s-3.45.13-5.11.38c-1.67.25-3.41.64-5.22,1.14-1.81.51-3.48,1.25-5,2.23s-2.9,2.12-4.14,3.43c-1.23,1.31-2.19,2.9-2.88,4.79-.69,1.89-1.03,3.99-1.03,6.31,0,4.43.85,8.09,2.56,10.99,1.7,2.9,4.3,5.06,7.78,6.47,3.48,1.41,7.94,2.12,13.38,2.12Z"/>
      <path class="cls-1" d="M339.04,2.26c5.88,0,10.97.13,15.29.38,4.31.25,8.27.65,11.86,1.2,3.59.54,6.58,1.32,8.98,2.34,2.39,1.02,4.46,2.2,6.2,3.54s3.1,3.03,4.08,5.06c.98,2.03,1.69,4.24,2.12,6.64.44,2.39.65,5.22.65,8.49h-26.99c0-1.16-.2-2.07-.6-2.72-.4-.65-1.29-1.29-2.67-1.9-1.38-.62-3.56-1.05-6.53-1.31-2.98-.25-6.89-.38-11.75-.38-6.46,0-11.17.15-14.15.44-2.98.29-4.86.65-5.66,1.09-.8.44-1.2,1.2-1.2,2.29.07.94,1.07,1.58,2.99,1.9,1.92.33,7.71.89,17.36,1.69.15,0,.25.04.33.11,19.15,1.52,31.3,2.9,36.45,4.13,6.75,1.6,11.1,4.32,13.06,8.16,1.31,2.61,1.96,6.38,1.96,11.31,0,3.48-.24,6.35-.71,8.6-.47,2.25-1.41,4.32-2.83,6.2-1.41,1.89-3.25,3.36-5.49,4.41-2.25,1.05-5.37,1.94-9.36,2.67-3.99.73-8.54,1.22-13.66,1.47-5.11.25-11.48.38-19.1.38-5.22,0-9.74-.07-13.55-.22-3.81-.14-7.36-.4-10.66-.76-3.3-.36-6.04-.83-8.22-1.42-2.18-.58-4.14-1.38-5.88-2.39-1.74-1.01-3.1-2.12-4.08-3.32-.98-1.2-1.79-2.74-2.45-4.62-.65-1.89-1.09-3.88-1.31-5.99-.22-2.1-.33-4.61-.33-7.51h26.22c0,1.67.45,2.85,1.36,3.54.91.69,2.83,1.2,5.77,1.52,2.94.33,7.71.49,14.31.49h2.61c8.27,0,13.29-.14,15.07-.43,1.78-.29,2.67-1.23,2.67-2.83,0-.94-.62-1.56-1.85-1.85-1.23-.29-4.64-.62-10.23-.98-4.06-.29-7.44-.54-10.12-.76-4.86-.44-8.54-.78-11.04-1.03-2.5-.25-5.59-.6-9.25-1.03-3.66-.43-6.42-.91-8.27-1.41s-3.99-1.18-6.42-2.01c-2.43-.83-4.21-1.78-5.33-2.83-1.13-1.05-2.28-2.32-3.48-3.81-1.2-1.49-2.01-3.19-2.45-5.12-.44-1.92-.65-4.08-.65-6.47,0-2.9.2-5.44.6-7.62.4-2.18,1.09-4.12,2.07-5.82s2.07-3.17,3.26-4.41c1.2-1.23,2.83-2.29,4.9-3.16,2.07-.87,4.19-1.56,6.37-2.07,2.18-.51,4.91-.91,8.22-1.2,3.3-.29,6.55-.47,9.74-.54,3.19-.07,7.11-.11,11.75-.11Z"/>
      <path class="cls-1" d="M451.34,2.04c1.45,0,2.83.04,4.14.11,1.31.07,3.14.31,5.49.71,2.36.4,4.5.98,6.42,1.74,1.92.76,3.97,1.87,6.15,3.32,2.18,1.45,4.01,3.17,5.49,5.17,1.49,2,2.72,4.57,3.7,7.73.98,3.16,1.47,6.68,1.47,10.56s-.45,7.42-1.36,10.61c-.91,3.19-2.09,5.86-3.54,8-1.45,2.14-3.19,4.03-5.22,5.66-2.03,1.63-4.03,2.9-5.99,3.81-1.96.91-4.01,1.63-6.15,2.18-2.14.54-3.97.91-5.5,1.09-1.52.18-2.94.27-4.24.27h-29.16v15.45h-25.35V2.04h53.65ZM450.57,40.45c6.67,0,10.01-2.76,10.01-8.27,0-1.45-.27-2.68-.82-3.7-.54-1.02-1.16-1.76-1.85-2.23-.69-.47-1.58-.85-2.67-1.14-1.09-.29-1.98-.47-2.67-.54-.69-.07-1.51-.11-2.45-.11h-27.09v16h27.53Z"/>
      <path class="cls-1" d="M562.87,2.04h25.35v76.39h-25.35v-26.55h-45.48v26.55h-25.35V2.04h25.35v26.44h45.48V2.04Z"/>
      <path class="cls-1" d="M596.38,2.04h84.33v21.22h-58.98v6.75h55.28v20.35h-55.28v6.85h58.98v21.22h-84.33V2.04Z"/>
      <path class="cls-1" d="M776.58,30.12c0,12.04-4.68,20.64-14.04,25.79l15.67,22.53-29.27-.11-13.06-17.96h-22.96v18.06h-25.35V2.04h56.15c1.45,0,2.83.04,4.14.11,1.31.07,3.14.31,5.49.71,2.36.4,4.5.94,6.42,1.63,1.92.69,3.97,1.74,6.15,3.15s4.01,3.08,5.49,5c1.49,1.92,2.72,4.37,3.7,7.35.98,2.98,1.47,6.35,1.47,10.12ZM741.32,38.06c6.31,0,9.47-2.39,9.47-7.18,0-4.35-3.3-6.53-9.9-6.53h-27.97v13.71h28.4Z"/>
      <path class="cls-1" d="M781.58,2.04h84.33v21.22h-58.98v6.75h55.28v20.35h-55.28v6.85h58.98v21.22h-84.33V2.04Z"/>
    </g>
  </g>
</svg>