<?xml version="1.0" encoding="UTF-8"?>
<svg id="Layer_2" data-name="Layer 2" xmlns="http://www.w3.org/2000/svg" viewBox="0 0 197.23 226.51">
  <defs>
    <style>
      .cls-1 {
        fill: #fff;
        fill-rule: evenodd;
      }
    </style>
  </defs>
  <g id="assets">
    <g>
      <path class="cls-1" d="M184.59,217.02c.51-.51.85-1.19,1.35-2.03,1.19-2.37,2.2-5.25,3.9-8.47,1.52-3.05,2.37-4.57,3.73-7.12-1.69.68-3.22.51-4.74.17-1.53-.34-3.05-1.02-4.23-2.03v19.48h0ZM184.59,195.17v-8.47c.85,0,1.52.17,2.37.34,2.2.34,4.4,1.02,6.1,2.37,2.71,2.37,3.22,4.57,2.2,6.78-.85,2.03-3.73,2.37-6.27,1.86-2.03-.34-3.39-1.19-4.4-2.88h0ZM184.59,179.24v-22.19c.85.51,1.52,1.02,2.03,1.52,4.57,4.07,3.22,11.86-2.03,20.67ZM180.02,216.17c-.34,1.02,1.02,2.37,2.2,2.2.85,0,1.69-.51,2.37-1.35v-19.48c-.34-.17-.51-.51-.85-.85l-3.73,19.48h0ZM184.59,157.05v22.19c-6.1,10.17-17.45,21.69-31,30.33-1.02.68-2.03,1.19-3.05,1.86v-22.7c17.45-13.04,27.11-29.82,23.21-38.96,3.56,2.2,8.13,5.25,10.84,7.28h0ZM184.59,186.69v8.47c-.17-.34-.34-.51-.51-.85l-1.02-2.03-2.37,11.86c-2.37-.17-4.24-.51-6.95-1.19-2.54-.68-4.58-1.35-6.1-2.03,5.25-4.57,10.16-9.66,13.89-14.57,1.02.17,2.03.17,3.05.34h0ZM150.54,186.86c4.58-3.56,8.3-7.28,10.84-10.16-2.54-2.88-5.76-7.46-6.78-10.5-1.19-4.06-1.87-7.28-1.02-10.5-1.02,1.19-2.03,2.37-3.05,3.39v27.78ZM150.54,159.08v27.78c-.68.68-1.36,1.19-2.03,1.69-.34-.34-1.02-1.19-1.53-2.03-1.19-1.52-2.54-3.56-3.73-5.93-1.7-3.39-2.71-6.44-3.39-10.5,3.05-2.88,7.12-6.95,7.12-6.95,0,0,1.69-1.69,3.56-4.06h0ZM150.54,188.73c-13.55,10.17-31.68,17.96-51.84,17.96s-38.63-7.96-52.18-18.3v22.87c17.45,10.33,34.73,13.89,52.18,13.72,17.45.17,34.56-3.39,51.84-13.55v-22.7h0ZM46.52,186.52v-27.44c2.03,2.37,3.39,3.9,3.39,3.9,0,0,4.41,4.57,7.45,7.45-.68,4.07-1.7,6.78-3.39,10.16-1.19,2.37-2.54,4.4-3.73,5.93-.51.85-1.02,1.36-1.36,1.86-.85-.68-1.52-1.19-2.37-1.86ZM46.52,159.08v27.44s-.17,0-.17-.17c-4.07-3.22-7.62-6.78-10.68-10.17,2.88-2.71,5.93-6.95,6.95-10,1.19-4.06,1.86-7.28,1.02-10.5,1.02,1.19,2.03,2.37,2.88,3.39h0ZM46.52,188.39c-17.11-13.04-26.6-29.65-22.87-38.63-3.56,2.2-8.13,5.25-10.84,7.28v22.02c5.93,10.33,17.45,21.85,31,30.49.85.51,1.86,1.19,2.71,1.69v-22.87h0ZM12.81,217.02v-19.48c.17-.34.34-.51.68-.85l3.73,19.48c.34,1.02-1.02,2.37-2.2,2.2-.85,0-1.53-.51-2.2-1.35h0ZM12.81,195v-8.3c1.02-.17,2.03-.17,3.05-.34,1.87,2.37,3.9,4.91,6.27,7.45,1.86,1.86,3.9,3.73,5.93,5.59l1.69,1.52c-1.69.68-3.56,1.35-6.27,2.03-2.71.68-4.57,1.02-6.95,1.19l-2.37-11.86-1.02,2.03c-.17.17-.34.51-.34.68ZM12.81,157.05v22.02c-5.42-8.81-6.61-16.43-2.03-20.5.51-.34,1.19-.85,2.03-1.52h0ZM12.81,186.69v8.3c-1.19,1.69-2.54,2.71-4.58,3.05-2.54.51-5.42.17-6.27-1.86-1.02-2.2-.51-4.4,2.2-6.78,1.69-1.36,3.9-2.03,6.1-2.37.85-.17,1.69-.34,2.54-.34h0ZM12.81,197.54c-1.19,1.02-2.71,1.69-4.23,2.03-1.69.34-3.22.51-4.91-.17,1.36,2.54,2.2,4.07,3.73,7.12,1.69,3.22,2.71,6.1,3.9,8.47.51.85,1.02,1.52,1.52,2.03v-19.48Z"/>
      <polygon class="cls-1" points="40.76 203.47 40.42 196.69 46.69 195.17 44.66 193.64 39.4 195 39.4 195 41.94 191.61 40.25 190.25 34.15 198.55 35.85 199.74 38.56 196.18 38.56 196.35 38.73 201.94 40.76 203.47"/>
      <path class="cls-1" d="M53.81,205.67c.68-1.36,1.02-2.54.68-3.9-.17-1.36-1.19-2.54-2.54-3.39-.85-.51-1.86-.85-2.71-.85v1.86c.51,0,1.19.17,1.86.51,1.53.85,1.86,2.71.68,4.57-.68,1.19-1.69,1.86-2.54,1.86v1.86c.51,0,.85,0,1.35-.17,1.36-.17,2.37-1.19,3.22-2.37ZM49.23,197.54c-.51,0-1.02.17-1.36.17-1.36.34-2.54,1.19-3.22,2.54-.85,1.36-1.02,2.88-.68,4.24.34,1.19,1.19,2.2,2.54,2.88.85.68,1.86.85,2.71.85v-1.86c-.68.17-1.36,0-1.86-.34-1.53-1.02-2.03-2.71-.85-4.57.68-1.19,1.69-1.86,2.71-2.03v-1.86Z"/>
      <polygon class="cls-1" points="70.92 207.19 62.95 204.31 62.45 205.84 65.16 206.85 62.28 214.99 64.31 215.66 67.19 207.7 69.9 208.55 70.92 207.19"/>
      <polygon class="cls-1" points="76.84 219.39 77.35 217.7 73.63 216.68 74.3 214.14 77.52 214.99 78.03 213.29 74.81 212.44 75.49 210.07 78.54 210.92 79.56 209.4 73.8 207.87 71.09 217.87 76.84 219.39"/>
      <polygon class="cls-1" points="95.14 211.6 86.84 210.75 86.5 212.44 89.55 212.78 88.71 221.25 90.91 221.42 91.75 212.95 94.46 213.29 95.14 211.6"/>
      <path class="cls-1" d="M106.66,221.59l-4.4-10.16h-.85v2.88c.17.34.34.68.51,1.19l.68,2.03h-1.19v1.69h1.86l1.02,2.54,2.37-.17ZM101.41,211.43h-.85l-3.73,10.33h2.03l.85-2.54h1.69v-1.69h-1.02l.68-2.03c.17-.51.34-.85.34-1.19h0v-2.88Z"/>
      <path class="cls-1" d="M119.88,219.9l-1.7-10.17-2.03.34.85,5.08c0,.51.17,1.19.34,1.52h-.17c-.34-.34-.68-.68-1.19-1.02l-5.08-4.74-2.03.17,1.52,10.17,2.2-.34-1.02-5.42c0-.51-.17-1.19-.17-1.52h0c.34.51.68.85,1.19,1.19l5.25,4.91,2.03-.17Z"/>
      <path class="cls-1" d="M133.09,215.16l-1.36-4.24-2.03.68,1.02,3.39c-.34.17-.85.51-1.36.68-2.03.51-3.73-.68-4.4-2.54-.51-1.69,0-3.56,2.71-4.4,1.02-.34,1.86-.34,2.88-.17l-.51-1.86c-1.02,0-1.86,0-3.22.51-3.39,1.02-4.91,3.9-3.9,6.78.85,2.71,3.39,4.4,6.44,3.39,1.7-.51,2.88-1.36,3.73-2.2Z"/>
      <path class="cls-1" d="M145.8,210.58l-6.61-6.1v2.71l1.19,1.19-1.19.51v1.86l2.54-1.19,2.03,1.86,2.03-.85ZM139.19,204.48l-1.52-1.53-1.53.68.68,11.01,1.86-.85-.17-2.71.68-.34v-1.86l-.85.34-.17-2.03c0-.51,0-1.02-.17-1.36h0c.17.34.51.68.85,1.02l.34.34v-2.71Z"/>
      <polygon class="cls-1" points="149.18 196.52 142.07 200.92 142.92 202.45 145.46 200.76 150.03 208.04 151.9 206.85 147.32 199.74 149.69 198.21 149.18 196.52"/>
      <path class="cls-1" d="M163.75,198.21l-7.29-4.07v2.2l1.53,1.02-1.53,1.02v5.42l1.19-.85-.85-2.54,2.71-2.2,2.37,1.36,1.86-1.36ZM156.47,194.15l-2.37-1.52-1.36,1.02,3.22,10.67.51-.51v-5.42l-.17.34-.68-2.2c-.17-.34-.34-.85-.51-1.19h0c.34.34.68.51,1.02.85l.34.17v-2.2Z"/>
      <path class="cls-1" d="M186.79,213.12c.85-1.86,1.69-4.23,3.05-6.61,1.52-3.05,2.37-4.57,3.73-7.12-1.69.68-3.22.51-4.74.17-.68-.17-1.36-.34-2.03-.51v-1.69c.68.34,1.36.51,2.2.68,2.54.51,5.42.17,6.27-1.86,1.02-2.2.51-4.4-2.2-6.78-1.7-1.36-3.9-2.03-6.1-2.37h-.17v-1.69c.17.17.34.17.51.17,2.2.34,4.74,1.02,6.78,2.71,3.22,2.71,3.9,5.42,2.37,8.98-1.86,3.9-3.22,5.93-5.25,10-1.69,3.22-2.71,6.27-3.9,8.47-.17.34-.34.51-.51.85v-3.39h0ZM186.79,178.56v-3.39c3.39-6.95,3.73-13.04,0-16.43v-2.03c.34.34.51.51.85.68,5.25,4.57,4.07,12.37-.85,21.18ZM180.02,216.17c-.34,1.02,1.02,2.37,2.2,2.2,1.53-.17,2.54-1.35,3.73-3.39.34-.68.51-1.19.85-1.86v3.39c-1.02,1.86-2.37,3.22-4.4,3.39-1.86.17-4.4-1.69-3.9-4.07l2.03-10.16c-2.54-.17-4.4-.51-7.28-1.19-2.88-.85-5.08-1.53-6.95-2.37-2.2,1.86-4.74,3.73-7.12,5.42v-1.86c12.88-9.32,23.04-20.84,27.62-30.49v3.39c-1.19,2.2-2.54,4.23-4.07,6.44,1.19,0,2.54.17,4.07.34v1.69c-1.86-.34-3.73-.51-5.25-.68-3.73,4.91-8.64,10-13.89,14.57,1.52.68,3.56,1.35,6.1,2.03,2.71.68,4.57,1.02,6.95,1.19l2.37-11.86,1.02,2.03c.68,1.36,1.53,2.37,2.71,3.05v1.69c-1.19-.51-2.2-1.35-3.05-2.37l-3.73,19.48h0ZM186.79,156.71c-3.73-2.71-15.42-10.5-15.76-10.67-2.03-1.52-3.73-1.86-6.27-1.86-2.37.17-4.06,1.02-5.59,2.2v18.81c1.19-.51,2.54-.68,3.9-.51,2.03,0,4.23.68,5.42,2.37-1.52,2.54-3.56,5.42-5.76,8.13-1.19-1.02-2.54-2.54-3.56-4.07v2.88c.68,1.02,1.53,1.86,2.2,2.71-.68.85-1.36,1.69-2.2,2.54v2.2c11.01-10.67,16.77-22.36,15.08-29.99,0-.51-.17-1.19-.34-1.69,4.57,3.05,10.68,7.11,12.71,8.81l.17.17v-2.03ZM159.18,146.37v18.81c-.85.34-1.69,1.02-2.2,1.69.51,1.36,1.36,2.88,2.2,4.24v2.88c-1.86-2.71-3.73-5.59-4.57-7.79-1.19-4.06-1.87-7.28-1.02-10.5-3.22,3.73-6.61,7.45-6.61,7.45,0,0-4.07,4.07-7.12,6.95.68,4.07,1.69,7.12,3.39,10.5,1.19,2.37,2.54,4.4,3.73,5.93.51.85,1.19,1.69,1.53,2.03,4.23-3.22,7.96-6.44,10.67-9.32v2.2c-13.89,13.38-35.74,25.24-60.48,25.24s-46.76-12.03-60.48-25.58v-2.2c2.37,2.54,5.08,5.08,8.13,7.45.68.68,1.52,1.36,2.54,2.03.34-.51.85-1.02,1.36-1.86,1.19-1.52,2.54-3.56,3.73-5.93,1.69-3.39,2.71-6.1,3.39-10.16-3.05-2.88-7.45-7.45-7.45-7.45,0,0-3.05-3.56-6.27-7.29.85,3.22.17,6.44-1.02,10.5-.68,2.03-2.54,4.91-4.41,7.29v-2.54c.85-1.36,1.7-2.71,2.37-3.9-.51-.85-1.36-1.53-2.37-1.86v-18.98c1.19,1.02,2.37,2.37,3.22,3.9,3.56,4.91,9.66,11.86,9.66,11.86,0,0,4.57,4.74,7.62,7.62l.34.68c-.85,4.4-1.86,7.45-3.73,11.01-1.19,2.54-2.71,4.58-3.73,6.1-.68.85-1.02,1.53-1.36,2.03,12.54,8.98,29.14,15.76,48.45,15.76s35.91-6.78,48.62-15.76c-.51-.51-1.02-1.19-1.69-2.03-1.02-1.52-2.54-3.56-3.73-6.1-1.86-3.56-2.88-6.61-3.73-11.01l.34-.68c3.05-2.88,7.62-7.62,7.62-7.62,0,0,6.1-6.95,9.66-11.86l.17.17c.85-1.53,2.03-2.88,3.22-3.9h0ZM159.18,205.67c-1.86,1.36-3.73,2.71-5.59,3.9-18.47,11.69-36.42,15.59-54.89,15.42-18.47.17-36.43-3.73-54.89-15.42-1.87-1.19-3.9-2.54-5.59-3.9v1.86c1.53,1.19,3.05,2.2,4.74,3.39,18.64,11.86,37.1,15.75,55.74,15.59,18.64.17,37.1-3.73,55.74-15.59,1.53-1.19,3.22-2.2,4.74-3.39v-1.86ZM38.22,146.2v18.98c-1.19-.51-2.54-.68-3.73-.51-2.2,0-4.23.68-5.42,2.2,1.53,2.71,3.39,5.42,5.59,8.13,1.19-1.19,2.37-2.54,3.56-4.06v2.54c-.85,1.02-1.69,2.03-2.54,2.71.85.85,1.7,1.86,2.54,2.71v2.2c-11.69-11.52-17.62-24.06-14.57-31.34-4.58,2.88-10.84,7.11-12.88,8.81,0,0-.17.17-.34.34v-2.03c3.56-2.71,13.04-8.98,16.43-11.18,1.86-1.19,3.56-1.52,5.93-1.52,2.2.17,3.9.85,5.42,2.03h0ZM38.22,205.67c-13.04-9.32-23.21-21.01-27.78-30.83v3.56c1.19,2.03,2.71,4.23,4.23,6.44-1.19.17-2.71.34-4.23.51v1.69c2.03-.34,3.9-.51,5.42-.68,1.87,2.37,3.9,4.91,6.27,7.45,1.86,1.86,3.9,3.73,5.93,5.59l1.69,1.52c-1.69.68-3.56,1.35-6.27,2.03-2.71.68-4.57,1.02-6.95,1.19l-2.37-11.86-1.02,2.03c-.68,1.36-1.53,2.37-2.71,3.05v1.69c1.19-.51,2.2-1.35,3.05-2.37l3.73,19.48c.34,1.02-1.02,2.37-2.2,2.2-1.53-.17-2.54-1.35-3.73-3.39-.17-.68-.51-1.19-.85-1.86v3.39c1.19,1.86,2.37,3.22,4.4,3.39,2.03.17,4.4-1.69,3.9-4.07l-1.86-10.16c2.37-.17,4.23-.51,7.11-1.19,2.88-.85,5.08-1.53,7.12-2.37,2.2,1.86,4.57,3.73,7.11,5.42v-1.86ZM10.43,156.88v2.03c-3.56,3.39-3.05,9.15,0,15.93v3.56c-4.74-8.64-5.76-16.6-.68-21.01.17-.17.51-.34.68-.51h0ZM10.43,185.34v1.69h-.17c-2.2.34-4.41,1.02-6.1,2.37-2.71,2.37-3.22,4.57-2.2,6.78.85,2.03,3.73,2.37,6.27,1.86.85-.17,1.53-.34,2.2-.68v1.69c-.68.17-1.36.34-1.86.51-1.69.34-3.22.51-4.91-.17,1.36,2.54,2.2,4.07,3.73,7.12,1.36,2.37,2.2,4.74,3.05,6.61v3.39c-.17-.34-.34-.51-.51-.85-1.19-2.2-2.2-5.25-3.9-8.47-2.03-4.07-3.39-6.1-5.25-10-1.52-3.56-.85-6.27,2.37-8.98,2.03-1.69,4.57-2.37,6.78-2.71.17,0,.34,0,.51-.17Z"/>
      <path class="cls-1" d="M179.68,1.53v85.72s.34,7.62-2.71,19.65c-3.22,12.2-9.66,28.63-23.38,46.25-10.67,13.55-24.4,24.73-35.58,32.19-9.83,6.78-17.62,10.84-19.31,11.69-1.7-.85-10-4.91-20.33-12.03-11.69-7.96-26.09-19.82-37.1-34.9-11.01-15.59-16.94-32.02-19.99-44.39-3.05-12.54-3.22-21.01-3.22-21.01V1.53h161.62Z"/>
      <path class="cls-1" d="M36.86,20.5h124.01v66.07s0,23.21-18.64,50.49c-15.93,23.38-43.54,38.29-43.54,38.29,0,0-30.5-18.3-45.74-42.18-16.94-26.94-16.09-50.65-16.09-50.65V20.5Z"/>
      <path class="cls-1" d="M179.68,1.53h-80.81V0h82.34v87.25c0,.17,1.36,31.17-26.43,66.92-20.84,26.6-53.7,43.37-55.91,44.56v-1.69c1.86-1.02,9.49-5.08,19.14-11.69,11.18-7.45,24.9-18.64,35.58-32.19,13.72-17.62,20.16-34.05,23.38-46.25,3.05-12.03,2.71-19.65,2.71-19.65V1.53ZM98.87,1.53H18.06v83.18s.17,8.47,3.22,21.01c3.05,12.37,8.98,28.8,19.99,44.39,11.01,15.08,25.41,26.94,37.1,34.9,10.34,7.12,18.64,11.18,20.33,12.03h.17v1.69c-.17,0-.17.17-.17.17,0,0-9.49-4.4-21.18-12.54-11.86-8.13-26.43-19.99-37.44-35.41-22.53-31.68-23.72-66.24-23.72-66.24V0h82.5v1.53Z"/>
      <path class="cls-1" d="M172.39,9.32c1.86,4.74,3.05,9.66,3.56,13.55,1.19,9.15-2.2,10.5-5.59,8.64v-10.33c.85.51,1.36,1.19,1.7,2.03-.17-1.86-.34-2.71-1.02-5.42-.17-.68-.34-1.19-.68-1.86v-7.29c.68.17,1.36.51,2.03.68h0ZM170.36,111.31v-8.47c3.39-11.69,2.88-23.55,2.88-23.55-1.19,1.69-2.03,3.05-2.88,4.4v-5.59c1.7-2.54,3.73-5.42,5.59-9.49,0,0,1.69,19.65-2.88,36.76-.68,2.88-1.69,4.74-2.71,5.93h0ZM170.36,94.87c.34-.85.68-1.69.85-2.54.17-1.69-.17-2.71-.85-3.05v5.59h0ZM170.36,72.51c2.71-4.74,4.91-9.66,5.93-14.74,2.03-10.5-3.22-9.66-5.93-5.59v7.12c1.02.34,2.37-.68,2.88-2.2-.85,3.39-1.7,5.93-2.88,8.3v7.12h0ZM170.36,46.93v-11.35c3.39-1.69,6.27,4.74,4.24,9.66-1.36,3.05-3.22,2.88-4.24,1.69ZM170.36,31.51c-2.2-1.19-4.4-4.24-4.57-7.12-.34-4.58,2.54-4.74,4.57-3.22v10.33h0ZM170.36,15.93c-.34-1.19-.85-2.37-1.36-3.39-1.35-.68-3.22-1.36-5.25-1.86-2.54-.68-3.39-.85-5.25-1.19,2.88,1.19,4.91,6.78-1.19,6.44-7.11-.51-14.4-12.37,1.53-10.33,3.39.51,7.45,1.53,11.52,3.05v7.29h0ZM170.36,35.58v11.35c-.51-.85-.85-2.03-.68-3.22-1.36,3.9-1.53,5.93-1.87,10.16v16.43c1.02-1.69,1.87-3.39,2.54-4.91v7.12c-1.69,3.05-3.73,5.93-5.76,8.81v-27.61c.17-4.23.51-6.78,1.69-10.84,1.19-4.4,2.71-6.61,4.06-7.28h0ZM170.36,52.18c-.68,1.19-1.19,2.54-1.36,3.9,0,2.03.51,3.05,1.36,3.22v-7.12h0ZM170.36,78.1c-2.54,4.06-4.91,7.11-6.27,12.37-2.88,11.35,3.9,9.32,6.27,4.4v-5.59c-.85-.68-2.54.34-3.22,1.86,1.02-3.22,2.03-5.25,3.22-7.45v-5.59h0ZM170.36,102.83v8.47c-3.9,4.57-8.64-3.39-6.1-8.81,2.37-4.57,5.76-.85,5.59,2.37.17-.68.34-1.36.51-2.03h0ZM146.3,156.2v-6.61c2.03-.85,4.23-1.69,6.61-3.05,0,0-2.2,4.23-6.61,9.66h0ZM146.3,146.54c5.42-1.86,10.67-4.4,14.06-9.15,7.79-11.01-.34-10.67-4.74-5.93-3.05,3.39.34,5.08,2.88,3.56-4.24,4.4-6.95,5.76-11.18,7.62,0,0,6.27-12.37,14.23-21.01-2.03,2.37-1.69,6.44,3.05,4.06,6.61-3.39,4.91-18.64-4.91-6.95-3.39,3.9-6.27,8.13-8.81,11.69-1.7,2.54-3.22,4.91-4.57,7.11v8.98ZM146.3,137.56v8.98c-2.2.85-4.57,1.52-6.78,2.03,2.03-3.22,4.06-6.95,6.78-11.01h0ZM146.3,149.59v6.61c-4.4,5.59-10.67,12.37-18.97,18.3-12.54,8.81-11.69-3.56-4.91-6.95,4.75-2.37,5.08,1.86,2.88,4.07,11.18-6.27,19.14-17.96,19.14-17.96-5.25,1.69-8.3,2.37-13.04,5.59,2.54-1.19,6.1.17,2.88,3.56-4.57,4.74-15.25,2.54-4.74-5.93,5.08-4.06,10.33-4.91,16.77-7.28h0ZM98.7,192.45h0c4.74-2.03,8.64-4.4,11.69-6.78,12.88-9.83-1.19-13.38-6.1-8.3-4.23,4.24.51,6.1,4.07,4.91,0,0-2.54,1.69-5.08,3.22-1.53.85-3.22,1.86-4.57,2.37v4.57h0ZM98.7,16.94v-4.4c6.1-3.39,12.7-6.27,19.48-7.45,15.08-2.71,9.15,6.95,1.7,7.28-5.25.34-4.07-3.39-1.02-4.23-6.27,1.69-9.83,2.88-15.08,5.59h17.96c4.74,0,10.17-.68,14.57-1.86-3.56.51-6.95-2.88-1.52-5.08,7.79-3.05,19.31,4.24,2.54,8.47-4.74,1.19-10.51,1.69-15.42,1.69h-23.21ZM98.7,9.32c2.54-1.36,4.91-2.88,7.28-4.4h-7.28v4.4ZM98.7,4.91v4.4c-6.1,3.39-12.71,6.27-19.48,7.45-15.08,2.71-9.32-6.95-1.69-7.28,5.25-.34,4.06,3.39,1.02,4.23,6.27-1.52,9.83-2.71,15.08-5.59h-17.96c-4.74,0-10.16.68-14.57,2.03,3.56-.51,6.94,2.88,1.52,4.91-4.4,1.69-10.16.17-11.01-2.37v-1.36c.51-1.53,3.05-3.22,8.47-4.74,4.74-1.02,10.5-1.52,15.42-1.69h23.21ZM98.7,12.54c-2.54,1.36-4.92,2.88-7.29,4.4h7.29v-4.4h0ZM98.7,187.88v4.57c-4.58-2.03-8.64-4.4-11.69-6.78-12.87-9.83,1.19-13.38,6.1-8.3,4.24,4.24-.51,6.1-4.06,4.91,0,0,2.54,1.69,5.08,3.22,1.52.85,3.22,1.86,4.58,2.37h0ZM51.6,156.2c4.23,5.59,10.67,12.37,18.97,18.3,12.54,8.81,11.52-3.56,4.92-6.95-4.75-2.37-5.08,1.86-3.05,4.07-11.18-6.27-18.98-17.96-18.98-17.96,5.08,1.69,8.13,2.37,12.87,5.59-2.37-1.19-5.93.17-2.71,3.56,4.57,4.74,15.25,2.54,4.57-5.93-5.08-4.06-10.16-4.91-16.6-7.28v6.61h0ZM51.6,146.54v-8.98c2.54,4.07,4.74,7.79,6.61,11.01-2.2-.51-4.4-1.19-6.61-2.03ZM51.6,11.35v1.36c-.17-.51-.17-.85,0-1.36h0ZM51.6,137.56v8.98c-5.59-1.86-10.67-4.4-14.06-9.15-7.96-11.01.34-10.67,4.57-5.93,3.05,3.39-.34,5.08-2.71,3.56,4.07,4.4,6.95,5.76,11.18,7.62,0,0-6.27-12.37-14.4-21.01,2.03,2.37,1.86,6.44-2.88,4.06-6.78-3.39-5.08-18.64,4.91-6.95,3.39,3.9,6.27,8.13,8.64,11.69,1.87,2.54,3.39,4.91,4.74,7.11h0ZM51.6,149.59v6.61c-4.4-5.42-6.78-9.66-6.78-9.66,2.54,1.36,4.74,2.2,6.78,3.05h0ZM27.55,111.31c4.06,4.57,8.64-3.39,6.1-8.81-2.37-4.57-5.76-.85-5.42,2.37-.34-.68-.51-1.36-.68-2.03v8.47h0ZM27.55,94.87v-5.59c1.02-.68,2.54.34,3.22,1.86-1.02-3.22-2.03-5.25-3.22-7.45v-5.59c2.71,4.06,4.91,7.11,6.27,12.37,2.88,11.35-3.9,9.32-6.27,4.4h0ZM27.55,72.51c1.69,3.05,3.73,5.93,5.76,8.81v-27.61c-.17-4.23-.51-6.78-1.69-10.84-1.19-4.4-2.71-6.61-4.06-7.28v11.35c.68-.85,1.02-2.03.68-3.22,1.36,3.9,1.53,5.93,2.03,10.16v16.43c-1.19-1.69-2.03-3.39-2.71-4.91v7.12h0ZM27.55,59.3v-7.12c.68,1.19,1.19,2.54,1.36,3.9.17,2.03-.51,3.05-1.36,3.22h0ZM27.55,31.68v-10.5c2.03-1.52,4.91-1.36,4.74,3.22-.17,2.88-2.37,5.93-4.74,7.28h0ZM27.55,15.93c.34-1.19.85-2.37,1.36-3.39,1.52-.68,3.39-1.36,5.25-1.86,2.54-.68,3.56-.85,5.42-1.19-3.05,1.19-5.08,6.78,1.02,6.44,7.11-.51,14.4-12.37-1.53-10.33-3.39.51-7.45,1.53-11.52,3.05v7.29ZM27.55,8.64v7.29c-.17.68-.34,1.19-.51,1.86-.85,2.71-.85,3.56-1.19,5.42.34-.85,1.02-1.53,1.7-2.03v10.5c-3.22,1.69-6.78.34-5.59-8.81.51-3.9,1.7-8.81,3.73-13.55.51-.17,1.19-.51,1.87-.68h0ZM27.55,35.58v11.35c-1.02,1.19-2.88,1.35-4.24-1.69-2.03-4.91.85-11.35,4.24-9.66h0ZM27.55,52.18c-2.71-4.06-7.96-4.91-5.93,5.59,1.02,5.08,3.22,10,5.93,14.74v-7.12c-1.19-2.54-1.87-4.91-2.88-8.3.51,1.52,1.86,2.54,2.88,2.2v-7.12h0ZM27.55,78.1v5.59c-.85-1.36-1.7-2.71-2.88-4.4,0,0-.51,11.86,2.88,23.55v8.47c-1.02-1.19-2.03-3.05-2.71-5.93-4.57-17.11-2.71-36.76-2.71-36.76,1.86,4.07,3.73,6.95,5.42,9.49h0ZM27.55,89.28c-.68.34-1.02,1.35-.68,3.05,0,.85.34,1.69.68,2.54v-5.59Z"/>
      <path class="cls-1" d="M162.74,154.51c.17,1.02,1.02,1.69,2.03,1.69s2.03-.85,2.03-2.03c0-.51-.17-.85-.51-1.35-.34-.17-.68-.51-1.19-.51-1.36-.51-3.22,0-4.23,1.86-1.53,2.37,0,5.59,2.71,6.78,2.88,1.02,8.64-.34,9.15-6.27.51-4.07-.85-6.44-3.56-7.96-3.39-1.86-10.33-1.02-11.69,5.25l.34.17c3.22-4.07,6.95-4.07,9.32-2.88,3.22,1.69,3.05,5.76,1.69,7.62-1.36,1.86-3.56,2.37-5.25,1.19-.85-.68-1.35-2.2-.85-3.56h0ZM34.83,154.51c-.17,1.02-1.02,1.69-2.03,1.69-1.19,0-2.03-.85-2.03-2.03,0-.51.17-.85.51-1.35.34-.17.68-.51,1.19-.51,1.36-.51,3.22,0,4.23,1.86,1.36,2.37,0,5.59-2.71,6.78-2.88,1.02-8.64-.34-9.32-6.27-.34-4.07,1.02-6.44,3.73-7.96,3.22-1.86,10.17-1.02,11.69,5.25l-.34.17c-3.22-4.07-6.95-4.07-9.32-2.88-3.22,1.69-3.22,5.76-1.69,7.62,1.36,1.86,3.56,2.37,5.08,1.19,1.02-.68,1.52-2.2,1.02-3.56Z"/>
      <path class="cls-1" d="M108.19,159.59l-9.32-6.78-9.49,6.78,3.73-11.01-9.49-6.78h11.69l3.56-11.01,3.56,11.01h11.52l-9.32,6.78,3.56,11.01h0ZM106.32,47.1l-7.45-5.42-7.45,5.42,2.88-8.64-7.45-5.42h9.15l2.88-8.81,2.88,8.81h9.15l-7.45,5.42,2.88,8.64h0ZM153.93,95.21l-7.45-5.42-7.45,5.42,2.88-8.64-7.45-5.42h9.15l2.88-8.81,2.88,8.81h9.15l-7.46,5.42,2.88,8.64h0ZM58.38,95.21l-7.45-5.42-7.45,5.42,2.88-8.64-7.45-5.42h9.15l2.88-8.81,2.88,8.81h9.15l-7.45,5.42,2.88,8.64Z"/>
      <path class="cls-1" d="M66.34,64.72h2.37v53.37l26.26-.17c.51,0,.85,0,1.02-.17.51-.17,1.36-.51,2.03-1.36.34-.34.68-.68.85-1.02.17.34.34.68.68,1.02.85.85,1.53,1.19,2.03,1.36.34.17.51.17,1.02.17l26.26.17v-53.37h2.37v54.89h-27.1c.17,2.2-2.03,2.03-5.25,2.03-3.39,0-5.59.17-5.42-2.03h-27.11v-54.89Z"/>
      <path class="cls-1" d="M125.3,111.47l2.03,3.05v-53.36c-.34-.34-1.19-.85-1.87-1.19h-.17v-1.86c.17,0,.34.17.51.34,1.02.68,3.05,1.86,3.05,1.86v57.77h-3.56v-1.69h1.52l-1.52-2.03v-2.88ZM124.96,59.8c-.34-.34-.68-.51-1.02-1.02v50.65l1.36,2.03v2.88l-2.54-3.9c-.85,0-2.2.17-3.39,0-2.2,0-5.25-.34-7.96-1.69-.17,0-.34,0-.51-.17v-1.69c.34.17.51.17.68.34,4.74,2.2,10.84,1.69,10.84,1.69v-51.67s-5.93.51-10.84-1.52c-.17-.17-.34-.17-.68-.34v-1.69c.34.17.68.34,1.02.51,2.54,1.19,5.42,1.52,7.62,1.52,2.03.17,4.07-.17,4.23-.17.17.51.34,1.52,1.53,2.54v1.86l-.34-.17h0ZM125.3,116.39v1.69l-14.4-.17v-1.53h14.4ZM110.9,53.7v1.69c-1.7-1.02-3.22-2.54-7.12-2.2-3.05.17-4.23,2.37-4.23,2.37v50.82s1.36-1.35,4.4-1.52c3.73-.34,5.25,1.02,6.95,2.03v1.69c-.85-.34-1.7-1.02-2.71-1.53-1.02-.51-2.37-.85-4.57-.68-1.53.17-2.54.68-3.22,1.36-.34.17-.51.51-.85,1.02v4.4c0,.17,0,.34.17.51,0,.34.34.85,1.02,1.52.68.85,1.36,1.02,1.7,1.19h8.47v1.53h-8.3c-.51,0-.68,0-1.02-.17-.51-.17-1.19-.51-2.03-1.36-.34-.34-.51-.68-.68-1.02-.17.34-.51.68-.85,1.02-.68.85-1.52,1.19-2.03,1.36-.17.17-.51.17-.68.17h-8.64v-1.53h8.47c.68-.17,1.19-.51,1.86-1.19.68-.68.85-1.19,1.02-1.52v-4.91c-.34-.51-.51-.85-.85-1.02-.51-.68-1.7-1.19-3.22-1.36-2.2-.17-3.56.17-4.58.68-1.02.51-1.86,1.19-2.71,1.53v-1.69c1.69-1.02,3.39-2.37,7.11-2.03,3.05.17,4.23,1.52,4.23,1.52v-50.82s-1.02-2.2-4.06-2.37c-4.06-.34-5.59,1.19-7.28,2.2v-1.69c.68-.34,1.35-.85,2.03-1.19,1.35-.68,3.05-1.02,5.42-.85,2.03.17,3.39,1.02,4.23,1.69.17.17.34.34.51.51.17-.17.34-.34.51-.51.85-.68,2.2-1.52,4.07-1.69,2.54-.17,4.06.17,5.42.85.85.34,1.36.85,2.03,1.19ZM86.67,53.7v1.69c-.17.17-.51.17-.68.34-4.74,2.03-10.67,1.52-10.67,1.52v51.67s6.1.51,10.67-1.69c.17-.17.51-.17.68-.34v1.69q-.17.17-.34.17c-2.88,1.35-5.76,1.69-8.13,1.69-1.19.17-2.37,0-3.22,0l-2.71,3.9v-2.88l1.53-2.03v-50.65c-.51.51-.85.68-1.19,1.02q-.17,0-.34.17v-1.86c1.19-1.02,1.36-2.03,1.53-2.54.17,0,2.2.34,4.23.17,2.37,0,5.08-.34,7.62-1.52.34-.17.68-.34,1.02-.51h0ZM86.67,116.39v1.53h-14.4v-1.53h14.4ZM72.27,58.11v1.86c-.85.51-1.7.85-2.03,1.19v53.36l2.03-3.05v2.88l-1.53,2.03h1.53v1.53l-3.56.17v-57.77s2.03-1.19,3.05-1.86c.17-.17.34-.34.51-.34Z"/>
      <path class="cls-1" d="M125.3,116.39v-2.03l1.52,2.03h-1.52ZM125.3,111.47l2.03,3.05v-53.36c-.34-.34-1.02-.68-2.03-1.19v51.5ZM72.27,116.39h22.87c.68-.17,1.19-.51,1.86-1.19.68-.68.85-1.19,1.02-1.52v-4.91c-.34-.51-.51-.85-.85-1.02-.51-.68-1.7-1.19-3.22-1.36-2.2-.17-3.56.17-4.58.68-1.19.51-2.03,1.36-3.05,1.69-2.88,1.35-5.76,1.69-8.13,1.69-1.19.17-2.37,0-3.22,0l-2.71,3.9v2.03h0ZM125.3,59.97v51.5l-1.36-2.03v-50.65c.34.51.68.68,1.02,1.02.17,0,.34,0,.34.17h0ZM125.3,114.35l-2.54-3.9c-.85,0-2.2.17-3.39,0-2.2,0-5.25-.34-7.96-1.69-1.19-.34-2.03-1.19-3.22-1.69-1.02-.51-2.37-.85-4.57-.68-1.53.17-2.54.68-3.22,1.36-.34.17-.51.51-.85,1.02l.17,4.91c0,.34.34.85,1.02,1.52.68.68,1.19,1.02,1.7,1.19h22.87v-2.03h0ZM72.27,111.47v-51.5q.17-.17.34-.17c.34-.34.68-.51,1.19-1.02v50.65l-1.53,2.03ZM70.75,116.39h1.53v-2.03l-1.53,2.03h0ZM72.27,59.97v51.5l-2.03,3.05v-53.36c.34-.34,1.19-.68,2.03-1.19Z"/>
      <path class="cls-1" d="M99.55,106.39v-50.82s1.19-2.2,4.23-2.37c4.4-.34,5.76,1.69,7.79,2.54,4.91,2.03,10.84,1.52,10.84,1.52v51.67s-6.1.51-10.84-1.69c-2.03-1.02-3.56-2.71-7.62-2.37-3.05.17-4.4,1.52-4.4,1.52h0ZM98.02,106.39v-50.82s-1.02-2.2-4.06-2.37c-4.58-.34-5.93,1.69-7.96,2.54-4.74,2.03-10.67,1.52-10.67,1.52v51.67s6.1.51,10.67-1.69c2.03-1.02,3.56-2.71,7.79-2.37,3.05.17,4.23,1.52,4.23,1.52Z"/>
      <path class="cls-1" d="M120.22,103.17s-2.2.68-6.1-.51c-3.05-.85-4.74-2.54-7.45-2.71-2.54-.17-5.08.34-5.08.34,0,0,2.2-1.69,4.74-1.69,3.39,0,5.42,1.86,8.3,2.88,3.56,1.36,5.59,1.69,5.59,1.69h0ZM120.22,98.26s-2.03-.51-5.59-1.69c-2.88-1.19-4.91-3.05-8.3-3.05-2.54.17-4.74,1.86-4.74,1.86,0,0,2.54-.68,5.08-.51,2.71.17,4.41,2.03,7.45,2.88,3.9,1.19,6.1.51,6.1.51h0ZM120.22,93.18s-2.2.68-6.1-.51c-3.05-.85-4.74-2.54-7.45-2.71-2.54-.17-5.08.34-5.08.34,0,0,2.2-1.69,4.74-1.69,3.39,0,5.42,1.86,8.3,2.88,3.56,1.36,5.59,1.69,5.59,1.69h0ZM120.22,88.26s-2.03-.51-5.59-1.69c-2.88-1.19-4.91-3.05-8.3-2.88-2.54,0-4.74,1.69-4.74,1.69,0,0,2.54-.68,5.08-.51,2.71.17,4.41,2.03,7.45,2.88,3.9,1.19,6.1.51,6.1.51h0ZM120.22,83.18s-2.2.68-6.1-.34c-3.05-1.02-4.74-2.71-7.45-2.88-2.54-.17-5.08.51-5.08.51,0,0,2.2-1.86,4.74-1.86,3.39,0,5.42,1.86,8.3,2.88,3.56,1.36,5.59,1.69,5.59,1.69h0ZM120.22,78.27s-2.03-.51-5.59-1.69c-2.88-1.19-4.91-2.88-8.3-2.88-2.54,0-4.74,1.69-4.74,1.69,0,0,2.54-.68,5.08-.51,2.71.34,4.41,2.03,7.45,2.88,3.9,1.19,6.1.51,6.1.51h0ZM120.22,73.19s-2.2.68-6.1-.34c-3.05-1.02-4.74-2.71-7.45-2.88-2.54-.17-5.08.51-5.08.51,0,0,2.2-1.86,4.74-1.86,3.39,0,5.42,1.86,8.3,2.88,3.56,1.36,5.59,1.69,5.59,1.69h0ZM120.22,68.27s-2.03-.34-5.59-1.69c-2.88-1.02-4.91-2.88-8.3-2.88-2.54,0-4.74,1.69-4.74,1.69,0,0,2.54-.68,5.08-.51,2.71.34,4.41,2.03,7.45,2.88,3.9,1.19,6.1.51,6.1.51h0ZM120.22,63.19s-2.2.68-6.1-.34c-3.05-1.02-4.74-2.71-7.45-2.88-2.54-.17-5.08.51-5.08.51,0,0,2.2-1.86,4.74-1.86,3.39,0,5.42,1.86,8.3,2.88,3.56,1.36,5.59,1.7,5.59,1.7h0ZM77.35,103.17s2.37.68,6.1-.51c3.22-.85,4.91-2.54,7.45-2.71,2.54-.17,5.08.34,5.08.34,0,0-2.2-1.69-4.57-1.69-3.56,0-5.42,1.86-8.47,2.88-3.56,1.36-5.59,1.69-5.59,1.69h0ZM77.35,98.26s2.03-.51,5.59-1.69c3.05-1.19,4.91-3.05,8.47-3.05,2.37.17,4.57,1.86,4.57,1.86,0,0-2.54-.68-5.08-.51-2.54.17-4.23,2.03-7.45,2.88-3.73,1.19-6.1.51-6.1.51h0ZM77.35,93.18s2.37.68,6.1-.51c3.22-.85,4.91-2.54,7.45-2.71,2.54-.17,5.08.34,5.08.34,0,0-2.2-1.69-4.57-1.69-3.56,0-5.42,1.86-8.47,2.88-3.56,1.36-5.59,1.69-5.59,1.69h0ZM77.35,88.26s2.03-.51,5.59-1.69c3.05-1.19,4.91-3.05,8.47-2.88,2.37,0,4.57,1.69,4.57,1.69,0,0-2.54-.68-5.08-.51-2.54.17-4.23,2.03-7.45,2.88-3.73,1.19-6.1.51-6.1.51h0ZM77.35,83.18s2.37.68,6.1-.34c3.22-1.02,4.91-2.71,7.45-2.88,2.54-.17,5.08.51,5.08.51,0,0-2.2-1.86-4.57-1.86-3.56,0-5.42,1.86-8.47,2.88-3.56,1.36-5.59,1.69-5.59,1.69h0ZM77.35,78.27s2.03-.51,5.59-1.69c3.05-1.19,4.91-2.88,8.47-2.88,2.37,0,4.57,1.69,4.57,1.69,0,0-2.54-.68-5.08-.51-2.54.34-4.23,2.03-7.45,2.88-3.73,1.19-6.1.51-6.1.51h0ZM77.35,73.19s2.37.68,6.1-.34c3.22-1.02,4.91-2.71,7.45-2.88,2.54-.17,5.08.51,5.08.51,0,0-2.2-1.86-4.57-1.86-3.56,0-5.42,1.86-8.47,2.88-3.56,1.36-5.59,1.69-5.59,1.69h0ZM77.35,68.27s2.03-.34,5.59-1.69c3.05-1.02,4.91-2.88,8.47-2.88,2.37,0,4.57,1.69,4.57,1.69,0,0-2.54-.68-5.08-.51-2.54.34-4.23,2.03-7.45,2.88-3.73,1.19-6.1.51-6.1.51h0ZM77.35,63.19s2.37.68,6.1-.34c3.22-1.02,4.91-2.71,7.45-2.88,2.54-.17,5.08.51,5.08.51,0,0-2.2-1.86-4.57-1.86-3.56,0-5.42,1.86-8.47,2.88-3.56,1.36-5.59,1.7-5.59,1.7Z"/>
    </g>
  </g>
</svg>