<?xml version="1.0" encoding="UTF-8"?>
<svg id="Layer_2" data-name="Layer 2" xmlns="http://www.w3.org/2000/svg" viewBox="0 0 253.59 291.24">
  <defs>
    <style>
      .cls-1 {
        fill: #fff;
      }

      .cls-1, .cls-2 {
        fill-rule: evenodd;
      }

      .cls-2 {
        fill: #231f20;
      }
    </style>
  </defs>
  <g id="assets">
    <g>
      <path class="cls-1" d="M237.34,279.03c.65-.65,1.09-1.53,1.74-2.61,1.53-3.05,2.83-6.75,5.01-10.89,1.96-3.92,3.05-5.88,4.79-9.15-2.18.87-4.14.65-6.1.22-1.96-.44-3.92-1.31-5.45-2.61v25.05h0ZM237.34,250.93v-10.89c1.09,0,1.96.22,3.05.44,2.83.43,5.66,1.31,7.84,3.05,3.49,3.05,4.14,5.88,2.83,8.71-1.09,2.61-4.79,3.05-8.06,2.4-2.61-.43-4.35-1.52-5.66-3.7h0ZM237.34,230.46v-28.53c1.09.65,1.96,1.31,2.61,1.96,5.88,5.23,4.14,15.25-2.61,26.57ZM231.46,277.94c-.43,1.31,1.31,3.05,2.83,2.83,1.09,0,2.18-.65,3.05-1.74v-25.05c-.44-.22-.66-.65-1.09-1.09l-4.79,25.05h0ZM237.34,201.92v28.53c-7.84,13.07-22.44,27.88-39.86,38.99-1.31.87-2.61,1.53-3.92,2.4v-29.19c22.44-16.77,34.85-38.34,29.84-50.1,4.57,2.83,10.46,6.75,13.94,9.37h0ZM237.34,240.04v10.89c-.22-.44-.44-.65-.66-1.09l-1.31-2.61-3.05,15.25c-3.05-.22-5.45-.65-8.93-1.52-3.27-.87-5.88-1.74-7.84-2.61,6.75-5.88,13.07-12.42,17.86-18.73,1.31.22,2.61.22,3.92.43h0ZM193.56,240.26c5.88-4.57,10.67-9.37,13.94-13.07-3.27-3.7-7.41-9.59-8.71-13.51-1.52-5.23-2.4-9.37-1.31-13.5-1.31,1.52-2.61,3.05-3.92,4.36v35.72ZM193.56,204.54v35.72c-.87.87-1.74,1.52-2.61,2.18-.44-.43-1.31-1.52-1.96-2.61-1.52-1.96-3.27-4.57-4.79-7.62-2.18-4.36-3.49-8.28-4.36-13.5,3.92-3.7,9.15-8.93,9.15-8.93,0,0,2.18-2.18,4.57-5.23h0ZM193.56,242.66c-17.43,13.07-40.73,23.09-66.65,23.09s-49.66-10.24-67.09-23.52v29.41c22.44,13.29,44.66,17.86,67.09,17.64,22.44.22,44.43-4.36,66.65-17.43v-29.19h0ZM59.81,239.82v-35.29c2.61,3.05,4.36,5.01,4.36,5.01,0,0,5.66,5.88,9.58,9.58-.87,5.23-2.18,8.71-4.36,13.07-1.52,3.05-3.27,5.66-4.79,7.62-.65,1.09-1.31,1.74-1.74,2.4-1.09-.87-1.96-1.52-3.05-2.4ZM59.81,204.54v35.29s-.22,0-.22-.22c-5.23-4.14-9.8-8.71-13.73-13.07,3.7-3.48,7.63-8.93,8.93-12.85,1.52-5.23,2.39-9.37,1.31-13.5,1.31,1.52,2.61,3.05,3.7,4.36h0ZM59.81,242.22c-22-16.77-34.2-38.12-29.41-49.66-4.57,2.83-10.46,6.75-13.94,9.37v28.32c7.63,13.29,22.44,28.1,39.86,39.21,1.09.65,2.39,1.53,3.48,2.18v-29.41h0ZM16.47,279.03v-25.05c.22-.44.44-.65.87-1.09l4.79,25.05c.44,1.31-1.31,3.05-2.83,2.83-1.09,0-1.96-.65-2.83-1.74h0ZM16.47,250.72v-10.67c1.31-.22,2.61-.22,3.92-.43,2.4,3.05,5.01,6.32,8.06,9.58,2.4,2.4,5.01,4.79,7.63,7.19l2.18,1.96c-2.18.87-4.57,1.74-8.06,2.61-3.49.87-5.88,1.31-8.93,1.52l-3.05-15.25-1.31,2.61c-.22.22-.44.65-.44.87ZM16.47,201.92v28.32c-6.97-11.33-8.49-21.13-2.61-26.36.66-.44,1.53-1.09,2.61-1.96h0ZM16.47,240.04v10.67c-1.52,2.18-3.26,3.49-5.88,3.92-3.26.65-6.97.22-8.06-2.4-1.31-2.83-.65-5.66,2.83-8.71,2.18-1.74,5.01-2.61,7.84-3.05,1.09-.22,2.18-.44,3.26-.44h0ZM16.47,253.98c-1.52,1.31-3.48,2.18-5.45,2.61-2.18.43-4.14.65-6.32-.22,1.74,3.27,2.83,5.23,4.79,9.15,2.18,4.14,3.49,7.84,5.01,10.89.65,1.09,1.31,1.96,1.96,2.61v-25.05Z"/>
      <polygon class="cls-2" points="52.41 261.61 51.97 252.89 60.03 250.93 57.42 248.97 50.66 250.72 50.66 250.72 53.93 246.36 51.75 244.62 43.91 255.29 46.09 256.82 49.58 252.24 49.58 252.46 49.79 259.65 52.41 261.61"/>
      <path class="cls-2" d="M69.18,264.44c.87-1.74,1.31-3.27.87-5.01-.22-1.74-1.52-3.27-3.27-4.36-1.09-.65-2.39-1.09-3.48-1.09v2.4c.65,0,1.52.22,2.4.65,1.96,1.09,2.4,3.49.87,5.88-.87,1.52-2.18,2.4-3.27,2.4v2.4c.65,0,1.09,0,1.74-.22,1.74-.22,3.05-1.52,4.14-3.05ZM63.3,253.98c-.65,0-1.31.22-1.74.22-1.74.43-3.27,1.52-4.14,3.27-1.09,1.74-1.31,3.7-.87,5.45.44,1.52,1.52,2.83,3.27,3.7,1.09.87,2.4,1.09,3.49,1.09v-2.4c-.87.22-1.74,0-2.4-.44-1.96-1.31-2.61-3.48-1.09-5.88.87-1.53,2.18-2.4,3.49-2.61v-2.4Z"/>
      <polygon class="cls-2" points="91.18 266.4 80.94 262.7 80.29 264.66 83.77 265.96 80.07 276.42 82.68 277.29 86.39 267.05 89.87 268.14 91.18 266.4"/>
      <polygon class="cls-2" points="98.8 282.08 99.46 279.9 94.67 278.6 95.54 275.33 99.68 276.42 100.33 274.24 96.19 273.15 97.06 270.1 100.98 271.19 102.29 269.23 94.89 267.27 91.4 280.12 98.8 282.08"/>
      <polygon class="cls-2" points="122.33 272.06 111.65 270.97 111.22 273.15 115.14 273.59 114.05 284.48 116.88 284.7 117.97 273.8 121.46 274.24 122.33 272.06"/>
      <path class="cls-2" d="M137.14,284.91l-5.66-13.07h-1.09v3.7c.22.44.43.87.65,1.52l.87,2.61h-1.52v2.18h2.4l1.31,3.27,3.05-.22ZM130.39,271.85h-1.09l-4.79,13.29h2.61l1.09-3.27h2.18v-2.18h-1.31l.87-2.61c.22-.65.43-1.09.43-1.52h0v-3.7Z"/>
      <path class="cls-2" d="M154.13,282.74l-2.18-13.07-2.61.44,1.09,6.54c0,.65.22,1.52.44,1.96h-.22c-.44-.43-.87-.87-1.52-1.31l-6.54-6.1-2.61.22,1.96,13.07,2.83-.44-1.31-6.97c0-.65-.22-1.52-.22-1.96h0c.43.65.87,1.09,1.52,1.53l6.75,6.32,2.61-.22Z"/>
      <path class="cls-2" d="M171.12,276.64l-1.74-5.45-2.61.87,1.31,4.36c-.44.22-1.09.65-1.74.87-2.61.65-4.79-.87-5.66-3.27-.65-2.18,0-4.57,3.49-5.66,1.31-.44,2.4-.44,3.7-.22l-.65-2.4c-1.31,0-2.4,0-4.14.65-4.35,1.31-6.32,5.01-5.01,8.71,1.09,3.48,4.36,5.66,8.28,4.36,2.18-.65,3.7-1.74,4.79-2.83Z"/>
      <path class="cls-2" d="M187.46,270.76l-8.5-7.84v3.48l1.52,1.52-1.52.65v2.4l3.27-1.53,2.61,2.4,2.61-1.09ZM178.96,262.91l-1.96-1.96-1.96.87.87,14.16,2.4-1.09-.22-3.49.87-.43v-2.4l-1.09.43-.22-2.61c0-.65,0-1.31-.22-1.74h0c.22.44.66.87,1.09,1.31l.43.44v-3.48Z"/>
      <polygon class="cls-2" points="191.81 252.68 182.67 258.34 183.75 260.3 187.02 258.12 192.9 267.49 195.3 265.96 189.42 256.82 192.47 254.86 191.81 252.68"/>
      <path class="cls-2" d="M210.55,254.86l-9.37-5.23v2.83l1.96,1.31-1.96,1.31v6.97l1.53-1.09-1.09-3.27,3.49-2.83,3.05,1.74,2.4-1.74ZM201.18,249.63l-3.05-1.96-1.74,1.31,4.14,13.72.65-.65v-6.97l-.22.44-.87-2.83c-.22-.44-.44-1.09-.65-1.52h0c.43.44.87.65,1.31,1.09l.43.22v-2.83Z"/>
      <path class="cls-2" d="M240.17,274.02c1.09-2.4,2.18-5.45,3.92-8.5,1.96-3.92,3.05-5.88,4.79-9.15-2.18.87-4.14.65-6.1.22-.87-.22-1.74-.44-2.61-.65v-2.18c.87.44,1.74.65,2.83.87,3.27.65,6.97.22,8.06-2.4,1.31-2.83.66-5.66-2.83-8.71-2.18-1.74-5.01-2.61-7.84-3.05h-.22v-2.18c.22.22.44.22.65.22,2.83.44,6.1,1.31,8.71,3.49,4.14,3.48,5.01,6.97,3.05,11.54-2.39,5.01-4.14,7.62-6.75,12.85-2.18,4.14-3.49,8.06-5.01,10.89-.22.43-.43.65-.65,1.09v-4.36h0ZM240.17,229.59v-4.36c4.35-8.93,4.79-16.77,0-21.13v-2.61c.44.44.65.65,1.09.87,6.75,5.88,5.23,15.9-1.09,27.23ZM231.46,277.94c-.43,1.31,1.31,3.05,2.83,2.83,1.96-.22,3.27-1.74,4.79-4.36.44-.87.65-1.52,1.09-2.4v4.36c-1.31,2.4-3.05,4.14-5.66,4.36-2.4.22-5.66-2.18-5.01-5.23l2.61-13.07c-3.27-.22-5.66-.65-9.37-1.52-3.71-1.09-6.54-1.96-8.93-3.05-2.83,2.4-6.1,4.79-9.15,6.97v-2.4c16.56-11.98,29.62-26.79,35.51-39.21v4.36c-1.52,2.83-3.27,5.44-5.23,8.28,1.52,0,3.27.22,5.23.44v2.18c-2.4-.44-4.79-.65-6.75-.87-4.79,6.32-11.11,12.85-17.86,18.73,1.96.87,4.57,1.74,7.84,2.61,3.48.87,5.88,1.31,8.93,1.52l3.05-15.25,1.31,2.61c.87,1.74,1.96,3.05,3.49,3.92v2.18c-1.52-.65-2.83-1.74-3.92-3.05l-4.79,25.05h0ZM240.17,201.49c-4.79-3.48-19.82-13.51-20.26-13.72-2.61-1.96-4.79-2.4-8.06-2.4-3.05.22-5.23,1.31-7.19,2.83v24.18c1.52-.65,3.27-.87,5.01-.65,2.61,0,5.45.87,6.97,3.05-1.96,3.27-4.57,6.97-7.41,10.46-1.52-1.31-3.26-3.27-4.57-5.23v3.7c.87,1.31,1.96,2.4,2.83,3.48-.87,1.09-1.74,2.18-2.83,3.27v2.83c14.16-13.72,21.56-28.75,19.39-38.56,0-.65-.22-1.52-.44-2.18,5.88,3.92,13.73,9.15,16.34,11.33l.22.22v-2.61ZM204.67,188.2v24.18c-1.09.43-2.18,1.31-2.83,2.18.65,1.74,1.74,3.7,2.83,5.45v3.7c-2.4-3.49-4.79-7.19-5.88-10.02-1.52-5.23-2.4-9.37-1.31-13.5-4.14,4.79-8.49,9.58-8.49,9.58,0,0-5.23,5.23-9.15,8.93.87,5.23,2.18,9.15,4.36,13.5,1.52,3.05,3.27,5.66,4.79,7.62.65,1.09,1.52,2.18,1.96,2.61,5.44-4.14,10.23-8.28,13.72-11.98v2.83c-17.86,17.21-45.96,32.45-77.76,32.45s-60.12-15.46-77.77-32.89v-2.83c3.05,3.27,6.54,6.54,10.46,9.58.87.87,1.96,1.74,3.26,2.61.44-.65,1.09-1.31,1.74-2.4,1.52-1.96,3.27-4.57,4.79-7.62,2.18-4.36,3.49-7.84,4.36-13.07-3.92-3.7-9.58-9.58-9.58-9.58,0,0-3.92-4.57-8.06-9.37,1.09,4.14.22,8.28-1.31,13.5-.87,2.61-3.27,6.32-5.67,9.37v-3.27c1.09-1.74,2.18-3.49,3.05-5.01-.65-1.09-1.74-1.96-3.05-2.4v-24.4c1.52,1.31,3.05,3.05,4.14,5.01,4.58,6.32,12.42,15.25,12.42,15.25,0,0,5.88,6.1,9.8,9.8l.43.87c-1.09,5.66-2.4,9.58-4.79,14.16-1.52,3.27-3.48,5.88-4.79,7.84-.87,1.09-1.31,1.96-1.74,2.61,16.12,11.54,37.47,20.26,62.3,20.26s46.18-8.71,62.51-20.26c-.65-.65-1.31-1.52-2.18-2.61-1.31-1.96-3.27-4.57-4.79-7.84-2.4-4.57-3.7-8.49-4.79-14.16l.44-.87c3.92-3.7,9.8-9.8,9.8-9.8,0,0,7.84-8.93,12.42-15.25l.22.22c1.09-1.96,2.61-3.7,4.14-5.01h0ZM204.67,264.44c-2.4,1.74-4.79,3.48-7.19,5.01-23.74,15.03-46.83,20.04-70.57,19.82-23.74.22-46.83-4.79-70.58-19.82-2.4-1.52-5.01-3.27-7.19-5.01v2.4c1.96,1.52,3.92,2.83,6.1,4.36,23.96,15.25,47.7,20.26,71.67,20.04,23.96.22,47.7-4.79,71.66-20.04,1.96-1.53,4.14-2.83,6.1-4.36v-2.4ZM49.14,187.98v24.4c-1.52-.65-3.27-.87-4.79-.65-2.83,0-5.45.87-6.97,2.83,1.96,3.49,4.36,6.97,7.19,10.46,1.52-1.52,3.05-3.27,4.57-5.23v3.27c-1.09,1.31-2.18,2.61-3.27,3.48,1.09,1.09,2.18,2.4,3.27,3.49v2.83c-15.03-14.81-22.65-30.93-18.73-40.3-5.88,3.7-13.94,9.15-16.56,11.33,0,0-.22.22-.43.44v-2.61c4.58-3.48,16.77-11.54,21.13-14.38,2.4-1.52,4.57-1.96,7.62-1.96,2.83.22,5.01,1.09,6.97,2.61h0ZM49.14,264.44c-16.77-11.98-29.84-27.01-35.72-39.64v4.57c1.52,2.61,3.49,5.45,5.45,8.28-1.52.22-3.48.44-5.45.65v2.18c2.61-.44,5.01-.65,6.97-.87,2.4,3.05,5.01,6.32,8.06,9.58,2.4,2.4,5.01,4.79,7.63,7.19l2.18,1.96c-2.18.87-4.57,1.74-8.06,2.61-3.49.87-5.88,1.31-8.93,1.52l-3.05-15.25-1.31,2.61c-.87,1.74-1.96,3.05-3.49,3.92v2.18c1.52-.65,2.83-1.74,3.92-3.05l4.79,25.05c.44,1.31-1.31,3.05-2.83,2.83-1.96-.22-3.27-1.74-4.79-4.36-.22-.87-.66-1.52-1.09-2.4v4.36c1.52,2.4,3.05,4.14,5.66,4.36,2.61.22,5.66-2.18,5.01-5.23l-2.4-13.07c3.05-.22,5.45-.65,9.15-1.52,3.7-1.09,6.54-1.96,9.15-3.05,2.83,2.4,5.88,4.79,9.15,6.97v-2.4ZM13.42,201.7v2.61c-4.57,4.36-3.92,11.76,0,20.48v4.57c-6.1-11.11-7.41-21.35-.87-27.01.22-.22.66-.44.87-.65h0ZM13.42,238.3v2.18h-.22c-2.83.43-5.67,1.31-7.84,3.05-3.48,3.05-4.14,5.88-2.83,8.71,1.09,2.61,4.79,3.05,8.06,2.4,1.09-.22,1.96-.43,2.83-.87v2.18c-.87.22-1.74.44-2.4.65-2.18.43-4.14.65-6.32-.22,1.74,3.27,2.83,5.23,4.79,9.15,1.74,3.05,2.83,6.1,3.92,8.5v4.36c-.22-.44-.43-.65-.65-1.09-1.52-2.83-2.83-6.75-5.01-10.89-2.61-5.23-4.35-7.84-6.75-12.85-1.96-4.57-1.09-8.06,3.05-11.54,2.61-2.18,5.88-3.05,8.71-3.49.22,0,.44,0,.65-.22Z"/>
      <path class="cls-1" d="M231.03,1.96v110.22s.43,9.8-3.49,25.27c-4.14,15.68-12.42,36.81-30.06,59.47-13.72,17.43-31.37,31.8-45.74,41.39-12.63,8.71-22.65,13.94-24.83,15.03-2.18-1.09-12.85-6.32-26.14-15.47-15.03-10.24-33.54-25.48-47.7-44.87-14.16-20.04-21.78-41.17-25.7-57.07-3.92-16.12-4.14-27.01-4.14-27.01V1.96h207.81Z"/>
      <path class="cls-2" d="M47.4,26.36h159.45v84.95s0,29.84-23.96,64.91c-20.48,30.06-55.98,49.23-55.98,49.23,0,0-39.21-23.52-58.81-54.24-21.78-34.63-20.69-65.13-20.69-65.13V26.36Z"/>
      <path class="cls-2" d="M231.03,1.96h-103.9V0h105.86v112.18c0,.22,1.74,40.08-33.98,86.04-26.79,34.2-69.05,55.76-71.88,57.29v-2.18c2.4-1.31,12.2-6.54,24.61-15.03,14.38-9.58,32.02-23.96,45.74-41.39,17.64-22.65,25.92-43.78,30.06-59.47,3.92-15.46,3.49-25.27,3.49-25.27V1.96ZM127.12,1.96H23.22v106.95s.22,10.89,4.14,27.01c3.92,15.9,11.54,37.03,25.7,57.07,14.16,19.39,32.67,34.63,47.7,44.87,13.29,9.15,23.96,14.38,26.14,15.47h.22v2.18c-.22,0-.22.22-.22.22,0,0-12.2-5.66-27.23-16.12-15.25-10.46-33.98-25.7-48.14-45.52-28.97-40.73-30.5-85.17-30.5-85.17V0h106.08v1.96Z"/>
      <path class="cls-2" d="M221.66,11.98c2.4,6.1,3.92,12.42,4.57,17.43,1.53,11.76-2.83,13.5-7.19,11.11v-13.29c1.09.65,1.74,1.52,2.18,2.61-.22-2.4-.44-3.49-1.31-6.97-.22-.87-.43-1.52-.87-2.4v-9.37c.87.22,1.74.65,2.61.87h0ZM219.04,143.11v-10.89c4.36-15.03,3.71-30.28,3.71-30.28-1.52,2.18-2.61,3.92-3.71,5.66v-7.19c2.18-3.27,4.79-6.97,7.19-12.2,0,0,2.18,25.27-3.7,47.27-.87,3.7-2.18,6.1-3.49,7.62h0ZM219.04,121.98c.44-1.09.87-2.18,1.09-3.27.22-2.18-.22-3.49-1.09-3.92v7.19h0ZM219.04,93.23c3.49-6.1,6.32-12.42,7.63-18.95,2.61-13.5-4.14-12.41-7.63-7.19v9.15c1.31.43,3.05-.87,3.71-2.83-1.09,4.36-2.18,7.62-3.71,10.67v9.15h0ZM219.04,60.34v-14.59c4.36-2.18,8.06,6.1,5.45,12.42-1.74,3.92-4.14,3.7-5.45,2.18ZM219.04,40.52c-2.83-1.52-5.66-5.45-5.88-9.15-.44-5.88,3.27-6.1,5.88-4.14v13.29h0ZM219.04,20.48c-.43-1.52-1.09-3.05-1.74-4.36-1.74-.87-4.14-1.74-6.75-2.4-3.27-.87-4.36-1.09-6.75-1.52,3.7,1.52,6.32,8.71-1.53,8.28-9.15-.65-18.52-15.9,1.96-13.29,4.36.65,9.58,1.96,14.81,3.92v9.37h0ZM219.04,45.74v14.59c-.65-1.09-1.09-2.61-.87-4.14-1.74,5.01-1.96,7.62-2.4,13.07v21.13c1.31-2.18,2.4-4.35,3.27-6.32v9.15c-2.18,3.92-4.79,7.62-7.4,11.33v-35.51c.22-5.45.65-8.71,2.18-13.94,1.52-5.66,3.48-8.49,5.23-9.37h0ZM219.04,67.09c-.87,1.53-1.52,3.27-1.74,5.01,0,2.61.66,3.92,1.74,4.14v-9.15h0ZM219.04,100.42c-3.27,5.23-6.32,9.15-8.06,15.9-3.7,14.59,5.01,11.98,8.06,5.66v-7.19c-1.09-.87-3.27.43-4.14,2.4,1.31-4.14,2.61-6.75,4.14-9.58v-7.19h0ZM219.04,132.22v10.89c-5.01,5.88-11.11-4.36-7.84-11.33,3.05-5.88,7.41-1.09,7.19,3.05.22-.87.43-1.74.65-2.61h0ZM188.11,200.83v-8.49c2.61-1.09,5.45-2.18,8.49-3.92,0,0-2.83,5.45-8.49,12.41h0ZM188.11,188.42c6.97-2.4,13.72-5.66,18.08-11.76,10.02-14.16-.43-13.72-6.1-7.62-3.92,4.36.44,6.54,3.7,4.57-5.45,5.66-8.93,7.41-14.38,9.8,0,0,8.06-15.9,18.3-27.01-2.61,3.05-2.18,8.28,3.92,5.23,8.49-4.35,6.32-23.96-6.32-8.93-4.36,5.01-8.06,10.45-11.33,15.03-2.18,3.27-4.14,6.32-5.88,9.15v11.55ZM188.11,176.87v11.55c-2.83,1.09-5.88,1.96-8.71,2.61,2.61-4.14,5.23-8.93,8.71-14.16h0ZM188.11,192.34v8.49c-5.66,7.19-13.72,15.9-24.39,23.53-16.12,11.33-15.03-4.57-6.32-8.93,6.1-3.05,6.54,2.4,3.7,5.23,14.38-8.06,24.61-23.09,24.61-23.09-6.75,2.18-10.67,3.05-16.77,7.19,3.27-1.53,7.84.22,3.7,4.57-5.88,6.1-19.6,3.27-6.1-7.63,6.54-5.23,13.29-6.32,21.56-9.37h0ZM126.91,247.45h0c6.1-2.61,11.11-5.66,15.03-8.71,16.56-12.63-1.52-17.21-7.84-10.67-5.45,5.45.66,7.84,5.23,6.32,0,0-3.27,2.18-6.54,4.14-1.96,1.09-4.14,2.4-5.88,3.05v5.88h0ZM126.91,21.78v-5.66c7.84-4.36,16.34-8.06,25.05-9.58,19.39-3.49,11.76,8.93,2.18,9.37-6.75.44-5.23-4.35-1.31-5.45-8.06,2.18-12.63,3.7-19.39,7.19h23.09c6.1,0,13.07-.87,18.73-2.4-4.57.65-8.93-3.7-1.96-6.54,10.02-3.92,24.83,5.45,3.27,10.89-6.1,1.53-13.51,2.18-19.82,2.18h-29.84ZM126.91,11.98c3.26-1.74,6.32-3.7,9.37-5.66h-9.37v5.66ZM126.91,6.32v5.66c-7.84,4.36-16.34,8.06-25.05,9.58-19.39,3.49-11.98-8.93-2.18-9.37,6.75-.44,5.23,4.36,1.31,5.44,8.06-1.96,12.63-3.48,19.39-7.19h-23.09c-6.1,0-13.07.87-18.73,2.61,4.57-.65,8.93,3.7,1.96,6.32-5.66,2.18-13.07.22-14.16-3.05v-1.74c.65-1.96,3.92-4.14,10.89-6.1,6.1-1.31,13.5-1.96,19.82-2.18h29.84ZM126.91,16.12c-3.27,1.74-6.32,3.7-9.37,5.66h9.37v-5.66h0ZM126.91,241.57v5.88c-5.88-2.61-11.11-5.66-15.03-8.71-16.55-12.63,1.52-17.21,7.84-10.67,5.45,5.45-.65,7.84-5.23,6.32,0,0,3.27,2.18,6.54,4.14,1.96,1.09,4.14,2.4,5.88,3.05h0ZM66.35,200.83c5.45,7.19,13.72,15.9,24.39,23.53,16.12,11.33,14.81-4.57,6.32-8.93-6.1-3.05-6.54,2.4-3.92,5.23-14.38-8.06-24.4-23.09-24.4-23.09,6.54,2.18,10.46,3.05,16.55,7.19-3.05-1.53-7.62.22-3.48,4.57,5.88,6.1,19.6,3.27,5.88-7.63-6.54-5.23-13.07-6.32-21.35-9.37v8.49h0ZM66.35,188.42v-11.55c3.27,5.23,6.1,10.02,8.49,14.16-2.83-.65-5.66-1.52-8.49-2.61ZM66.35,14.59v1.74c-.22-.65-.22-1.09,0-1.74h0ZM66.35,176.87v11.55c-7.19-2.4-13.72-5.66-18.08-11.76-10.24-14.16.43-13.72,5.88-7.62,3.92,4.36-.43,6.54-3.49,4.57,5.23,5.66,8.93,7.41,14.38,9.8,0,0-8.06-15.9-18.51-27.01,2.61,3.05,2.4,8.28-3.7,5.23-8.71-4.35-6.54-23.96,6.32-8.93,4.36,5.01,8.06,10.45,11.11,15.03,2.4,3.27,4.36,6.32,6.1,9.15h0ZM66.35,192.34v8.49c-5.66-6.97-8.71-12.41-8.71-12.41,3.27,1.74,6.1,2.83,8.71,3.92h0ZM35.42,143.11c5.23,5.88,11.11-4.36,7.84-11.33-3.05-5.88-7.41-1.09-6.97,3.05-.43-.87-.65-1.74-.87-2.61v10.89h0ZM35.42,121.98v-7.19c1.31-.87,3.27.43,4.14,2.4-1.31-4.14-2.61-6.75-4.14-9.58v-7.19c3.48,5.23,6.32,9.15,8.06,15.9,3.7,14.59-5.01,11.98-8.06,5.66h0ZM35.42,93.23c2.18,3.92,4.79,7.62,7.4,11.33v-35.51c-.22-5.45-.65-8.71-2.18-13.94-1.52-5.66-3.48-8.49-5.23-9.37v14.59c.87-1.09,1.31-2.61.87-4.14,1.74,5.01,1.96,7.62,2.61,13.07v21.13c-1.52-2.18-2.61-4.35-3.48-6.32v9.15h0ZM35.42,76.24v-9.15c.87,1.53,1.52,3.27,1.74,5.01.22,2.61-.66,3.92-1.74,4.14h0ZM35.42,40.73v-13.5c2.61-1.96,6.32-1.74,6.1,4.14-.22,3.7-3.05,7.62-6.1,9.37h0ZM35.42,20.48c.43-1.52,1.09-3.05,1.74-4.36,1.96-.87,4.35-1.74,6.75-2.4,3.27-.87,4.57-1.09,6.97-1.52-3.92,1.52-6.54,8.71,1.31,8.28,9.15-.65,18.52-15.9-1.96-13.29-4.36.65-9.58,1.96-14.81,3.92v9.37ZM35.42,11.11v9.37c-.22.87-.44,1.52-.66,2.4-1.09,3.48-1.09,4.57-1.52,6.97.44-1.09,1.31-1.96,2.18-2.61v13.5c-4.14,2.18-8.72.44-7.19-11.33.66-5.01,2.18-11.33,4.79-17.43.66-.22,1.53-.65,2.4-.87h0ZM35.42,45.74v14.59c-1.31,1.52-3.7,1.74-5.45-2.18-2.61-6.32,1.09-14.59,5.45-12.42h0ZM35.42,67.09c-3.49-5.23-10.24-6.32-7.63,7.19,1.31,6.54,4.14,12.85,7.63,18.95v-9.15c-1.52-3.27-2.4-6.32-3.7-10.67.66,1.96,2.4,3.27,3.7,2.83v-9.15h0ZM35.42,100.42v7.19c-1.09-1.74-2.18-3.49-3.7-5.66,0,0-.65,15.25,3.7,30.28v10.89c-1.31-1.53-2.61-3.92-3.49-7.62-5.88-22-3.49-47.27-3.49-47.27,2.4,5.23,4.79,8.93,6.97,12.2h0ZM35.42,114.79c-.87.43-1.31,1.74-.87,3.92,0,1.09.43,2.18.87,3.27v-7.19Z"/>
      <path class="cls-2" d="M209.24,198.66c.22,1.31,1.31,2.18,2.61,2.18s2.61-1.09,2.61-2.61c0-.65-.22-1.09-.65-1.74-.43-.22-.87-.65-1.52-.65-1.74-.65-4.14,0-5.45,2.4-1.96,3.05,0,7.19,3.48,8.71,3.7,1.31,11.11-.44,11.76-8.06.66-5.23-1.09-8.28-4.57-10.24-4.35-2.4-13.29-1.31-15.03,6.75l.43.22c4.14-5.23,8.93-5.23,11.98-3.7,4.14,2.18,3.92,7.41,2.18,9.8-1.74,2.4-4.58,3.05-6.75,1.52-1.09-.87-1.74-2.83-1.09-4.57h0ZM44.78,198.66c-.22,1.31-1.31,2.18-2.61,2.18-1.52,0-2.61-1.09-2.61-2.61,0-.65.22-1.09.66-1.74.43-.22.87-.65,1.52-.65,1.74-.65,4.14,0,5.45,2.4,1.74,3.05,0,7.19-3.49,8.71-3.7,1.31-11.11-.44-11.98-8.06-.43-5.23,1.31-8.28,4.79-10.24,4.14-2.4,13.07-1.31,15.03,6.75l-.44.22c-4.14-5.23-8.93-5.23-11.98-3.7-4.14,2.18-4.14,7.41-2.18,9.8,1.74,2.4,4.57,3.05,6.54,1.52,1.31-.87,1.96-2.83,1.31-4.57Z"/>
      <path class="cls-1" d="M139.1,205.19l-11.98-8.71-12.2,8.71,4.79-14.16-12.2-8.71h15.03l4.57-14.16,4.58,14.16h14.81l-11.98,8.71,4.57,14.16h0ZM136.71,60.56l-9.58-6.97-9.58,6.97,3.7-11.11-9.58-6.97h11.76l3.7-11.33,3.7,11.33h11.76l-9.58,6.97,3.7,11.11h0ZM197.91,122.42l-9.58-6.97-9.58,6.97,3.7-11.11-9.58-6.97h11.76l3.7-11.33,3.7,11.33h11.76l-9.59,6.97,3.7,11.11h0ZM75.06,122.42l-9.58-6.97-9.58,6.97,3.7-11.11-9.58-6.97h11.76l3.7-11.33,3.7,11.33h11.76l-9.58,6.97,3.7,11.11Z"/>
      <path class="cls-1" d="M85.3,83.21h3.05v68.62l33.76-.22c.65,0,1.09,0,1.31-.22.65-.22,1.74-.65,2.61-1.74.44-.43.87-.87,1.09-1.31.22.43.43.87.87,1.31,1.09,1.09,1.96,1.52,2.61,1.74.43.22.65.22,1.31.22l33.76.22v-68.62h3.05v70.58h-34.85c.22,2.83-2.61,2.61-6.75,2.61-4.36,0-7.19.22-6.97-2.61h-34.85v-70.58Z"/>
      <path class="cls-2" d="M161.1,143.33l2.61,3.92v-68.61c-.44-.44-1.53-1.09-2.4-1.52h-.22v-2.4c.22,0,.43.22.65.43,1.31.87,3.92,2.4,3.92,2.4v74.28h-4.57v-2.18h1.96l-1.96-2.61v-3.7ZM160.67,76.89c-.43-.44-.87-.65-1.31-1.31v65.13l1.74,2.61v3.7l-3.27-5.01c-1.09,0-2.83.22-4.36,0-2.83,0-6.75-.44-10.24-2.18-.22,0-.43,0-.65-.22v-2.18c.43.22.65.22.87.44,6.1,2.83,13.94,2.18,13.94,2.18v-66.44s-7.62.65-13.94-1.96c-.22-.22-.44-.22-.87-.44v-2.18c.43.22.87.43,1.31.65,3.27,1.52,6.97,1.96,9.8,1.96,2.61.22,5.23-.22,5.45-.22.22.65.43,1.96,1.96,3.27v2.4l-.44-.22h0ZM161.1,149.64v2.18l-18.52-.22v-1.96h18.52ZM142.59,69.05v2.18c-2.18-1.31-4.14-3.27-9.15-2.83-3.92.22-5.45,3.05-5.45,3.05v65.35s1.74-1.74,5.66-1.96c4.79-.44,6.75,1.31,8.93,2.61v2.18c-1.09-.44-2.18-1.31-3.49-1.96-1.31-.65-3.05-1.09-5.88-.87-1.96.22-3.27.87-4.14,1.74-.44.22-.65.65-1.09,1.31v5.66c0,.22,0,.44.22.65,0,.44.43,1.09,1.31,1.96.87,1.09,1.74,1.31,2.18,1.52h10.89v1.96h-10.67c-.65,0-.87,0-1.31-.22-.65-.22-1.52-.65-2.61-1.74-.44-.43-.65-.87-.87-1.31-.22.43-.65.87-1.09,1.31-.87,1.09-1.96,1.52-2.61,1.74-.22.22-.66.22-.87.22h-11.11v-1.96h10.89c.87-.22,1.52-.65,2.4-1.52.87-.87,1.09-1.52,1.31-1.96v-6.32c-.43-.65-.65-1.09-1.09-1.31-.65-.87-2.18-1.52-4.14-1.74-2.83-.22-4.57.22-5.88.87-1.31.65-2.4,1.52-3.48,1.96v-2.18c2.18-1.31,4.35-3.05,9.15-2.61,3.92.22,5.45,1.96,5.45,1.96v-65.35s-1.31-2.83-5.23-3.05c-5.23-.44-7.19,1.52-9.37,2.83v-2.18c.87-.44,1.74-1.09,2.61-1.52,1.74-.87,3.92-1.31,6.97-1.09,2.61.22,4.35,1.31,5.45,2.18.22.22.44.44.65.65.22-.22.43-.44.65-.65,1.09-.87,2.83-1.96,5.23-2.18,3.27-.22,5.23.22,6.97,1.09,1.09.43,1.74,1.09,2.61,1.52ZM111.44,69.05v2.18c-.22.22-.65.22-.87.44-6.1,2.61-13.72,1.96-13.72,1.96v66.44s7.84.65,13.72-2.18c.22-.22.65-.22.87-.44v2.18q-.22.22-.44.22c-3.7,1.74-7.41,2.18-10.46,2.18-1.52.22-3.05,0-4.14,0l-3.49,5.01v-3.7l1.96-2.61v-65.13c-.66.65-1.09.87-1.53,1.31q-.22,0-.43.22v-2.4c1.52-1.31,1.74-2.61,1.96-3.27.22,0,2.83.43,5.44.22,3.05,0,6.54-.44,9.8-1.96.44-.22.87-.44,1.31-.65h0ZM111.44,149.64v1.96h-18.52v-1.96h18.52ZM92.92,74.71v2.4c-1.09.65-2.18,1.09-2.61,1.52v68.61l2.61-3.92v3.7l-1.96,2.61h1.96v1.96l-4.57.22v-74.28s2.61-1.52,3.92-2.4c.22-.22.44-.43.66-.43Z"/>
      <path class="cls-1" d="M161.1,149.64v-2.61l1.96,2.61h-1.96ZM161.1,143.33l2.61,3.92v-68.61c-.44-.44-1.31-.87-2.61-1.52v66.22ZM92.92,149.64h29.41c.87-.22,1.52-.65,2.4-1.52.87-.87,1.09-1.52,1.31-1.96v-6.32c-.43-.65-.65-1.09-1.09-1.31-.65-.87-2.18-1.52-4.14-1.74-2.83-.22-4.57.22-5.88.87-1.52.65-2.61,1.74-3.92,2.18-3.7,1.74-7.41,2.18-10.46,2.18-1.52.22-3.05,0-4.14,0l-3.49,5.01v2.61h0ZM161.1,77.11v66.22l-1.74-2.61v-65.13c.43.65.87.87,1.31,1.31.22,0,.44,0,.44.22h0ZM161.1,147.03l-3.27-5.01c-1.09,0-2.83.22-4.36,0-2.83,0-6.75-.44-10.24-2.18-1.52-.44-2.61-1.52-4.14-2.18-1.31-.65-3.05-1.09-5.88-.87-1.96.22-3.27.87-4.14,1.74-.44.22-.65.65-1.09,1.31l.22,6.32c0,.44.43,1.09,1.31,1.96.87.87,1.52,1.31,2.18,1.52h29.41v-2.61h0ZM92.92,143.33v-66.22q.22-.22.43-.22c.44-.44.87-.65,1.53-1.31v65.13l-1.96,2.61ZM90.96,149.64h1.96v-2.61l-1.96,2.61h0ZM92.92,77.11v66.22l-2.61,3.92v-68.61c.43-.44,1.52-.87,2.61-1.52Z"/>
      <path class="cls-1" d="M127.99,136.79v-65.35s1.52-2.83,5.45-3.05c5.66-.44,7.41,2.18,10.02,3.27,6.32,2.61,13.94,1.96,13.94,1.96v66.44s-7.84.65-13.94-2.18c-2.61-1.31-4.58-3.49-9.8-3.05-3.92.22-5.66,1.96-5.66,1.96h0ZM126.03,136.79v-65.35s-1.31-2.83-5.23-3.05c-5.88-.44-7.63,2.18-10.24,3.27-6.1,2.61-13.72,1.96-13.72,1.96v66.44s7.84.65,13.72-2.18c2.61-1.31,4.57-3.49,10.02-3.05,3.92.22,5.45,1.96,5.45,1.96Z"/>
      <path class="cls-2" d="M154.57,132.66s-2.83.87-7.84-.65c-3.92-1.09-6.1-3.27-9.58-3.48-3.26-.22-6.53.44-6.53.44,0,0,2.83-2.18,6.1-2.18,4.36,0,6.97,2.4,10.67,3.7,4.57,1.74,7.19,2.18,7.19,2.18h0ZM154.57,126.34s-2.61-.65-7.19-2.18c-3.7-1.52-6.32-3.92-10.67-3.92-3.27.22-6.1,2.4-6.1,2.4,0,0,3.27-.87,6.53-.65,3.49.22,5.67,2.61,9.58,3.7,5.01,1.52,7.84.65,7.84.65h0ZM154.57,119.8s-2.83.87-7.84-.65c-3.92-1.09-6.1-3.27-9.58-3.48-3.26-.22-6.53.43-6.53.43,0,0,2.83-2.18,6.1-2.18,4.36,0,6.97,2.4,10.67,3.7,4.57,1.74,7.19,2.18,7.19,2.18h0ZM154.57,113.49s-2.61-.65-7.19-2.18c-3.7-1.52-6.32-3.92-10.67-3.7-3.27,0-6.1,2.18-6.1,2.18,0,0,3.27-.87,6.53-.65,3.49.22,5.67,2.61,9.58,3.7,5.01,1.52,7.84.65,7.84.65h0ZM154.57,106.95s-2.83.87-7.84-.44c-3.92-1.31-6.1-3.48-9.58-3.7-3.26-.22-6.53.65-6.53.65,0,0,2.83-2.4,6.1-2.4,4.36,0,6.97,2.4,10.67,3.7,4.57,1.74,7.19,2.18,7.19,2.18h0ZM154.57,100.64s-2.61-.65-7.19-2.18c-3.7-1.52-6.32-3.7-10.67-3.7-3.27,0-6.1,2.18-6.1,2.18,0,0,3.27-.87,6.53-.65,3.49.43,5.67,2.61,9.58,3.7,5.01,1.52,7.84.65,7.84.65h0ZM154.57,94.1s-2.83.87-7.84-.44c-3.92-1.31-6.1-3.48-9.58-3.7-3.26-.22-6.53.65-6.53.65,0,0,2.83-2.4,6.1-2.4,4.36,0,6.97,2.4,10.67,3.7,4.57,1.74,7.19,2.18,7.19,2.18h0ZM154.57,87.78s-2.61-.44-7.19-2.18c-3.7-1.31-6.32-3.7-10.67-3.7-3.27,0-6.1,2.18-6.1,2.18,0,0,3.27-.87,6.53-.65,3.49.44,5.67,2.61,9.58,3.7,5.01,1.53,7.84.65,7.84.65h0ZM154.57,81.25s-2.83.87-7.84-.44c-3.92-1.31-6.1-3.48-9.58-3.7-3.26-.22-6.53.65-6.53.65,0,0,2.83-2.4,6.1-2.4,4.36,0,6.97,2.4,10.67,3.7,4.57,1.74,7.19,2.18,7.19,2.18h0ZM99.46,132.66s3.05.87,7.84-.65c4.14-1.09,6.32-3.27,9.58-3.48,3.27-.22,6.54.44,6.54.44,0,0-2.83-2.18-5.88-2.18-4.57,0-6.97,2.4-10.89,3.7-4.58,1.74-7.19,2.18-7.19,2.18h0ZM99.46,126.34s2.61-.65,7.19-2.18c3.92-1.52,6.32-3.92,10.89-3.92,3.05.22,5.88,2.4,5.88,2.4,0,0-3.27-.87-6.54-.65-3.27.22-5.44,2.61-9.58,3.7-4.79,1.52-7.84.65-7.84.65h0ZM99.46,119.8s3.05.87,7.84-.65c4.14-1.09,6.32-3.27,9.58-3.48,3.27-.22,6.54.43,6.54.43,0,0-2.83-2.18-5.88-2.18-4.57,0-6.97,2.4-10.89,3.7-4.58,1.74-7.19,2.18-7.19,2.18h0ZM99.46,113.49s2.61-.65,7.19-2.18c3.92-1.52,6.32-3.92,10.89-3.7,3.05,0,5.88,2.18,5.88,2.18,0,0-3.27-.87-6.54-.65-3.27.22-5.44,2.61-9.58,3.7-4.79,1.52-7.84.65-7.84.65h0ZM99.46,106.95s3.05.87,7.84-.44c4.14-1.31,6.32-3.48,9.58-3.7,3.27-.22,6.54.65,6.54.65,0,0-2.83-2.4-5.88-2.4-4.57,0-6.97,2.4-10.89,3.7-4.58,1.74-7.19,2.18-7.19,2.18h0ZM99.46,100.64s2.61-.65,7.19-2.18c3.92-1.52,6.32-3.7,10.89-3.7,3.05,0,5.88,2.18,5.88,2.18,0,0-3.27-.87-6.54-.65-3.27.43-5.44,2.61-9.58,3.7-4.79,1.52-7.84.65-7.84.65h0ZM99.46,94.1s3.05.87,7.84-.44c4.14-1.31,6.32-3.48,9.58-3.7,3.27-.22,6.54.65,6.54.65,0,0-2.83-2.4-5.88-2.4-4.57,0-6.97,2.4-10.89,3.7-4.58,1.74-7.19,2.18-7.19,2.18h0ZM99.46,87.78s2.61-.44,7.19-2.18c3.92-1.31,6.32-3.7,10.89-3.7,3.05,0,5.88,2.18,5.88,2.18,0,0-3.27-.87-6.54-.65-3.27.44-5.44,2.61-9.58,3.7-4.79,1.53-7.84.65-7.84.65h0ZM99.46,81.25s3.05.87,7.84-.44c4.14-1.31,6.32-3.48,9.58-3.7,3.27-.22,6.54.65,6.54.65,0,0-2.83-2.4-5.88-2.4-4.57,0-6.97,2.4-10.89,3.7-4.58,1.74-7.19,2.18-7.19,2.18Z"/>
    </g>
  </g>
</svg>