<?xml version="1.0" encoding="UTF-8"?>
<svg id="Layer_2" data-name="Layer 2" xmlns="http://www.w3.org/2000/svg" viewBox="0 0 231.18 231.18">
  <defs>
    <style>
      .cls-1 {
        fill: #00c3ff;
      }
    </style>
  </defs>
  <g id="assets">
    <path class="cls-1" d="M115.59,0C51.76,0,0,51.75,0,115.59s51.76,115.59,115.59,115.59,115.59-51.75,115.59-115.59S179.43,0,115.59,0ZM68.12,31.46l-11.5,24.99-24.49,11c7.89-15.38,21.09-27.49,35.99-35.99ZM51.12,79.46l-2.99,26h-27c5.64-12.6,18-20.27,29.99-26ZM28.25,136.26c-.59-.63-1.15-1.28-1.68-1.94-.81-.98-1.55-2.01-2.23-3.07-.46-.7-.88-1.42-1.27-2.16-.79-1.48-1.44-3.02-1.94-4.63h27l2.49,27.01c-7.3-3.5-15.42-8.14-21.47-14.28-.31-.3-.61-.62-.9-.93ZM67.16,198.11c-.09.32-.33.48-.74.48-.1,0-.21-.01-.34-.04-.09-.02-.2-.04-.31-.07-.04-.01-.08-.02-.12-.03-.42-.13-.92-.35-1.48-.66-.56-.3-1.18-.68-1.85-1.13-5.84-3.85-15.3-12.47-18.22-15.67-.4-.44-1.53-1.84-2.94-3.67-.32-.4-.64-.83-.98-1.27h-.01c-.33-.45-.68-.91-1.03-1.37-1.13-1.51-2.3-3.11-3.35-4.61-.2-.28-.39-.55-.58-.81-.22-.33-.44-.65-.65-.96-.29-.44-.56-.85-.81-1.25-.76-1.2-1.33-2.2-1.56-2.85-.14-.37-.17-.63-.06-.74h.01s24.74,11.25,24.74,11.25l10.24,22.27c.11.48.14.86.04,1.13ZM106.13,210.46c-12.24-5.76-20.69-17.4-26.01-29.49l26.01,2.49v27ZM106.13,164.46c-11.38-.65-22.81-2.19-33.77-5.22-3.39-11.19-5.58-23-5.23-34.78h39v40ZM106.13,105.46h-39c.02-11.41,1.97-22.92,5.2-33.81l33.8-5.19v39ZM106.13,46.96l-2.5,1.5-23.51,1.49c3.22-6.76,7.37-14.07,12.83-19.77.29-.3.59-.6.88-.89,3.54-3.49,7.6-6.28,12.3-7.83v25.5ZM201.97,94.28c3.24,3.28,6.02,6.97,8.16,11.18h-27l-2.99-26c3.76,1.82,7.49,3.85,11.04,6.15,3.54,2.29,6.9,4.87,9.9,7.78.31.29.61.59.89.89ZM184.05,47.54c.78.78,1.55,1.58,2.31,2.39s1.5,1.63,2.23,2.46c.73.84,1.45,1.68,2.15,2.54,1.06,1.28,2.08,2.58,3.06,3.91,1.32,1.77,2.57,3.57,3.76,5.41.89,1.39,1.75,2.78,2.57,4.2l-24.97-11.52-12.02-25.47c7.58,4.32,14.65,9.8,20.91,16.08ZM125.13,21.46c5.09,1.66,9.42,4.81,13.15,8.73.57.6,1.13,1.22,1.67,1.86,4.63,5.4,8.25,11.92,11.19,17.9l-23.51-1.49-2.5-1.5v-25.5ZM125.13,66.46l33.79,5.19h0c1.42,4.77,2.59,9.65,3.46,14.59.25,1.41.47,2.83.67,4.25.3,2.13.54,4.26.71,6.41.24,2.85.36,5.71.37,8.56h-39v-39ZM125.13,210.46v-27l26.01-2.49c-5.48,12.16-13.73,23.61-26.01,29.49ZM125.13,164.46v-40h39c1.4,1.4-3.29,33.16-5.23,34.78l-33.77,5.22ZM192.55,174.38c-6.92,9.2-16.94,18.54-27.41,23.59-.33.17-.67.33-1,.48h-.01.01s10.49-23.99,10.49-23.99l24.49-11h0c.6.7-5.67,9.72-6.57,10.92ZM205.95,132.43c-.49.69-1.01,1.35-1.55,2-.54.65-1.1,1.28-1.68,1.89-.29.31-.59.62-.89.91-1.2,1.19-2.47,2.32-3.8,3.39-.66.54-1.34,1.06-2.02,1.57h-.01c-1.38,1.03-2.8,2-4.25,2.92-.36.22-.73.46-1.1.69-1.46.91-2.95,1.78-4.44,2.62-1.86,1.06-3.73,2.07-5.57,3.05l2.49-27.01h27c-1.03,2.93-2.45,5.57-4.18,7.97Z"/>
  </g>
</svg>