<?xml version="1.0" encoding="UTF-8"?>
<svg id="Layer_2" data-name="Layer 2" xmlns="http://www.w3.org/2000/svg" viewBox="0 0 1065.59 49.15">
  <defs>
    <style>
      .cls-1 {
        fill: #fff;
      }

      .cls-2 {
        fill: #0092ca;
      }
    </style>
  </defs>
  <g id="assets_saved">
    <g>
      <g>
        <polygon class="cls-2" points="58.61 49.15 69.66 49.15 99.46 0 88.41 0 58.61 49.15"/>
        <polygon class="cls-2" points="140.43 0 110.63 49.15 990.65 49.15 1020.45 0 140.43 0"/>
        <polygon class="cls-2" points="47.44 0 29.8 0 0 49.15 17.64 49.15 47.44 0"/>
        <polygon class="cls-2" points="1031.63 49.15 1065.59 49.15 1065.59 0 1061.43 0 1031.63 49.15"/>
      </g>
      <path class="cls-1" d="M167.42,42.92c-2.69-13.47-4.88-15.65-18.34-18.34,13.47-2.69,15.65-4.88,18.34-18.34,2.69,13.47,4.88,15.65,18.34,18.34-13.47,2.69-15.65,4.88-18.34,18.34Z"/>
      <path class="cls-1" d="M215.81,42.92c-2.69-13.47-4.88-15.65-18.34-18.34,13.47-2.69,15.65-4.88,18.34-18.34,2.69,13.47,4.88,15.65,18.34,18.34-13.47,2.69-15.65,4.88-18.34,18.34Z"/>
      <path class="cls-1" d="M264.19,42.92c-2.69-13.47-4.88-15.65-18.34-18.34,13.47-2.69,15.65-4.88,18.34-18.34,2.69,13.47,4.88,15.65,18.34,18.34-13.47,2.69-15.65,4.88-18.34,18.34Z"/>
    </g>
  </g>
</svg>