<?xml version="1.0" encoding="UTF-8"?>
<svg id="Layer_2" data-name="Layer 2" xmlns="http://www.w3.org/2000/svg" viewBox="0 0 621.33 621.33">
  <defs>
    <style>
      .cls-1 {
        fill: #fff;
      }
    </style>
  </defs>
  <g id="assets">
    <g>
      <path class="cls-1" d="M310.67,15c39.92,0,78.64,7.82,115.08,23.23,35.21,14.89,66.83,36.21,93.99,63.37s48.48,58.78,63.37,93.99c15.41,36.44,23.23,75.16,23.23,115.08s-7.82,78.64-23.23,115.08c-14.89,35.21-36.21,66.83-63.37,93.99s-58.78,48.48-93.99,63.37c-36.44,15.41-75.16,23.23-115.08,23.23s-78.64-7.82-115.08-23.23c-35.21-14.89-66.83-36.21-93.99-63.37-27.16-27.16-48.48-58.78-63.37-93.99-15.41-36.44-23.23-75.16-23.23-115.08s7.82-78.64,23.23-115.08c14.89-35.21,36.21-66.83,63.37-93.99,27.16-27.16,58.78-48.48,93.99-63.37,36.44-15.41,75.16-23.23,115.08-23.23M310.67,0C139.09,0,0,139.09,0,310.67s139.09,310.67,310.67,310.67,310.67-139.09,310.67-310.67S482.24,0,310.67,0h0Z"/>
      <g>
        <path class="cls-1" d="M106.64,538.56c-4.79,0-9.29-1.87-12.68-5.25l-1.33-1.33c-3.39-3.39-5.25-7.89-5.25-12.68s1.87-9.29,5.25-12.68L505.48,93.77c3.39-3.39,7.89-5.25,12.68-5.25s9.29,1.87,12.68,5.25l1.33,1.33c3.39,3.39,5.25,7.89,5.25,12.68s-1.87,9.29-5.25,12.68L119.32,533.31c-3.39,3.39-7.89,5.25-12.68,5.25Z"/>
        <path class="cls-1" d="M518.16,89.01c4.66,0,9.03,1.81,12.33,5.11l1.33,1.33c6.8,6.8,6.8,17.85,0,24.65L118.96,532.95c-3.29,3.29-7.67,5.11-12.33,5.11s-9.03-1.81-12.33-5.11l-1.33-1.33c-6.8-6.8-6.8-17.85,0-24.65L505.83,94.12c3.29-3.29,7.67-5.11,12.33-5.11M518.16,88.01c-4.72,0-9.43,1.8-13.03,5.4L92.27,506.26c-7.2,7.2-7.2,18.87,0,26.07l1.33,1.33c3.6,3.6,8.32,5.4,13.03,5.4s9.43-1.8,13.03-5.4L532.52,120.81c7.2-7.2,7.2-18.87,0-26.07l-1.33-1.33c-3.6-3.6-8.32-5.4-13.03-5.4h0Z"/>
      </g>
      <g>
        <path class="cls-1" d="M508.79,542.05c-4.79,0-9.29-1.87-12.68-5.25L84.25,124.94c-6.99-6.99-6.99-18.37,0-25.36l1.33-1.33c3.39-3.39,7.89-5.25,12.68-5.25s9.29,1.87,12.68,5.25l411.86,411.86c3.39,3.39,5.25,7.89,5.25,12.68s-1.87,9.29-5.25,12.68l-1.33,1.33c-3.39,3.39-7.89,5.25-12.68,5.25Z"/>
        <path class="cls-1" d="M98.26,93.49c4.66,0,9.03,1.81,12.33,5.11l411.86,411.86c6.8,6.8,6.8,17.85,0,24.65l-1.33,1.33c-3.29,3.29-7.67,5.11-12.33,5.11s-9.03-1.81-12.33-5.11L84.6,124.58c-3.29-3.29-5.11-7.67-5.11-12.33s1.81-9.03,5.11-12.33l1.33-1.33c3.29-3.29,7.67-5.11,12.33-5.11M98.26,92.49c-4.72,0-9.43,1.8-13.03,5.4l-1.33,1.33c-7.2,7.2-7.2,18.87,0,26.07l411.86,411.86c3.6,3.6,8.32,5.4,13.03,5.4s9.43-1.8,13.03-5.4l1.33-1.33c7.2-7.2,7.2-18.87,0-26.07L111.29,97.89c-3.6-3.6-8.32-5.4-13.03-5.4h0Z"/>
      </g>
    </g>
  </g>
</svg>