<?xml version="1.0" encoding="UTF-8"?>
<svg id="Layer_2" data-name="Layer 2" xmlns="http://www.w3.org/2000/svg" viewBox="0 0 510.46 46.88">
  <defs>
    <style>
      .cls-1 {
        fill: none;
        stroke: #fff;
        stroke-miterlimit: 10;
      }
    </style>
  </defs>
  <g id="assets">
    <g>
      <path class="cls-1" d="M.5,1.2h49.66v12.5H15.43v3.97h32.55v11.98H15.43v4.04h34.73v12.5H.5V1.2Z"/>
      <path class="cls-1" d="M115.85,1.2l-20.44,22.49,20.25,22.49h-20.12l-11.66-12.75-11.86,12.75h-20.12l20.44-22.49L52.09,1.2h20.12l11.73,12.75,11.79-12.75h20.12Z"/>
      <path class="cls-1" d="M138.41.5c1.92,0,3.81.09,5.67.26,1.86.17,3.84.48,5.96.93,2.11.45,4.08,1.04,5.9,1.76,1.82.73,3.59,1.69,5.32,2.88,1.73,1.2,3.2,2.57,4.42,4.13,1.22,1.56,2.19,3.45,2.92,5.67.73,2.22,1.09,4.66,1.09,7.31,0,3.46-.47,6.49-1.41,9.1-.94,2.61-2.27,4.79-3.97,6.54-1.71,1.75-3.87,3.17-6.47,4.26-2.61,1.09-5.45,1.87-8.52,2.34-3.08.47-6.56.71-10.45.71-10.34,0-17.98-1.94-22.91-5.83-4.93-3.89-7.4-9.87-7.4-17.94,0-2.78.45-5.32,1.35-7.63.9-2.31,2.12-4.24,3.68-5.8s3.31-2.93,5.25-4.1c1.94-1.17,4.07-2.08,6.38-2.72,2.31-.64,4.54-1.11,6.7-1.41,2.16-.3,4.33-.45,6.5-.45ZM138.98,34.59c4.66,0,8.19-.84,10.61-2.53,2.41-1.69,3.62-4.56,3.62-8.62,0-1.5-.21-2.85-.64-4.07-.43-1.22-1.04-2.22-1.83-3.01-.79-.79-1.65-1.46-2.56-2.02-.92-.55-1.94-.97-3.08-1.25-1.13-.28-2.2-.48-3.2-.61-1-.13-2.04-.19-3.11-.19s-2.03.08-3.01.22c-.98.15-2.01.37-3.08.67-1.07.3-2.05.74-2.95,1.31-.9.58-1.71,1.25-2.44,2.02-.73.77-1.29,1.71-1.7,2.82-.41,1.11-.61,2.35-.61,3.72,0,2.61.5,4.76,1.51,6.47,1,1.71,2.53,2.98,4.58,3.81s4.68,1.25,7.88,1.25Z"/>
      <path class="cls-1" d="M199.67,1.33c3.46,0,6.46.08,9,.22,2.54.15,4.87.38,6.98.71s3.88.78,5.29,1.38c1.41.6,2.63,1.29,3.65,2.08,1.03.79,1.83,1.78,2.4,2.98.58,1.2.99,2.5,1.25,3.91.26,1.41.38,3.08.38,5h-15.89c0-.68-.12-1.22-.35-1.6-.24-.38-.76-.76-1.57-1.12-.81-.36-2.09-.62-3.84-.77-1.75-.15-4.06-.22-6.92-.22-3.8,0-6.58.09-8.33.26-1.75.17-2.86.38-3.33.64-.47.26-.7.71-.7,1.35.04.56.63.93,1.76,1.12,1.13.19,4.54.52,10.22.99.09,0,.15.02.19.06,11.28.9,18.43,1.71,21.47,2.44,3.97.94,6.54,2.54,7.69,4.81.77,1.54,1.15,3.76,1.15,6.66,0,2.05-.14,3.74-.42,5.06-.28,1.32-.83,2.54-1.67,3.65-.83,1.11-1.91,1.98-3.24,2.6-1.32.62-3.16,1.14-5.51,1.57-2.35.43-5.03.72-8.04.87-3.01.15-6.76.22-11.25.22-3.08,0-5.74-.04-7.98-.13-2.24-.09-4.34-.23-6.28-.45-1.94-.21-3.56-.49-4.84-.83-1.28-.34-2.44-.81-3.46-1.41-1.03-.6-1.83-1.25-2.4-1.95-.58-.7-1.06-1.61-1.44-2.72-.38-1.11-.64-2.29-.77-3.52-.13-1.24-.19-2.71-.19-4.42h15.44c0,.98.27,1.68.8,2.08.53.41,1.67.71,3.4.9,1.73.19,4.54.29,8.43.29h1.54c4.87,0,7.83-.08,8.88-.26,1.05-.17,1.57-.73,1.57-1.67,0-.56-.36-.92-1.09-1.09-.73-.17-2.73-.36-6.02-.58-2.39-.17-4.38-.32-5.96-.45-2.86-.26-5.03-.46-6.5-.61-1.47-.15-3.29-.35-5.45-.61-2.16-.26-3.78-.53-4.87-.83-1.09-.3-2.35-.69-3.78-1.19-1.43-.49-2.48-1.05-3.14-1.67-.66-.62-1.35-1.37-2.05-2.24-.71-.88-1.19-1.88-1.44-3.01-.26-1.13-.38-2.4-.38-3.81,0-1.71.12-3.2.35-4.49.23-1.28.64-2.42,1.22-3.43.58-1,1.22-1.87,1.92-2.6.71-.73,1.67-1.35,2.88-1.86,1.22-.51,2.47-.92,3.75-1.22,1.28-.3,2.89-.53,4.84-.71,1.94-.17,3.85-.28,5.74-.32,1.88-.04,4.19-.06,6.92-.06Z"/>
      <path class="cls-1" d="M265.81,1.2c.85,0,1.67.02,2.43.06.77.04,1.85.18,3.24.42,1.39.24,2.65.58,3.78,1.03,1.13.45,2.34,1.1,3.62,1.95,1.28.85,2.36,1.87,3.24,3.04.88,1.18,1.6,2.69,2.18,4.55.58,1.86.87,3.93.87,6.22s-.27,4.37-.8,6.25c-.53,1.88-1.23,3.45-2.08,4.71-.86,1.26-1.88,2.37-3.08,3.33-1.2.96-2.37,1.71-3.53,2.24-1.15.53-2.36.96-3.62,1.28-1.26.32-2.34.53-3.24.64-.9.11-1.73.16-2.5.16h-17.17v9.1h-14.93V1.2h31.59ZM265.36,23.83c3.93,0,5.89-1.62,5.89-4.87,0-.85-.16-1.58-.48-2.18-.32-.6-.68-1.04-1.09-1.31-.41-.28-.93-.5-1.57-.67-.64-.17-1.16-.28-1.57-.32-.41-.04-.89-.06-1.44-.06h-15.96v9.42h16.21Z"/>
      <path class="cls-1" d="M331.49,1.2h14.93v44.99h-14.93v-15.64h-26.79v15.64h-14.93V1.2h14.93v15.57h26.79V1.2Z"/>
      <path class="cls-1" d="M351.23,1.2h49.66v12.5h-34.73v3.97h32.55v11.98h-32.55v4.04h34.73v12.5h-49.66V1.2Z"/>
      <path class="cls-1" d="M457.35,17.74c0,7.09-2.76,12.15-8.27,15.19l9.23,13.27-17.24-.06-7.69-10.57h-13.52v10.64h-14.93V1.2h33.07c.85,0,1.67.02,2.44.06.77.04,1.85.18,3.24.42,1.39.24,2.65.56,3.78.96,1.13.41,2.34,1.03,3.62,1.86,1.28.83,2.36,1.82,3.24,2.95.88,1.13,1.6,2.57,2.18,4.33.58,1.75.87,3.74.87,5.96ZM436.58,22.42c3.72,0,5.58-1.41,5.58-4.23,0-2.56-1.94-3.85-5.83-3.85h-16.47v8.07h16.73Z"/>
      <path class="cls-1" d="M460.3,1.2h49.66v12.5h-34.73v3.97h32.55v11.98h-32.55v4.04h34.73v12.5h-49.66V1.2Z"/>
    </g>
  </g>
</svg>