<?xml version="1.0" encoding="UTF-8"?>
<svg id="Layer_2" data-name="Layer 2" xmlns="http://www.w3.org/2000/svg" viewBox="0 0 65.66 421.81">
  <defs>
    <style>
      .cls-1 {
        fill: #fff;
      }
    </style>
  </defs>
  <g id="assets">
    <g>
      <polygon class="cls-1" points="0 408 65.66 421.81 65.66 13.82 0 0 0 408"/>
      <g>
        <path d="M6.77,149.89c0-.37,0-.74,0-1.11.16-.33.27-.69.48-.98.36-.51.77-.99,1.17-1.47.49-.59.95-.65,1.61-.24.42.27.83.56,1.26.79,2.27,1.24,4.73,1.85,7.3,2,3.01.17,6,.03,8.87-1.05.22-.08.45-.2.62-.35.3-.29.33-.79.12-1.14-.24-.4-.67-.57-1.15-.43-.61.17-1.21.41-1.83.56-2.58.59-5.19.67-7.8.31-2.17-.3-4.25-.91-6.08-2.18-1.2-.83-2.1-1.89-2.42-3.34-.5-2.22.24-4.12,1.75-5.7,2.63-2.75,5.97-4.06,9.71-4.47.2-.02.44-.13.56-.28.78-.93,1.51-1.9,2.31-2.8.29-.32.7-.59,1.1-.75,1-.39,2-.12,2.96.21,2.17.74,4.05,1.99,5.87,3.34,2.38,1.77,4.55,3.79,6.56,5.97,2.13,2.29,4.08,4.72,5.52,7.51.51.99.89,2.06,1.19,3.13.36,1.28-.04,2.38-1.09,3.23-6.41,5.16-12.82,10.32-19.21,15.51-.85.69-1.74.83-2.75.61-1.49-.34-2.81-1.08-4.07-1.9-2.72-1.76-5.1-3.93-7.25-6.33-2.28-2.55-4.44-5.2-5.31-8.63ZM41.6,146.04c-1.98-4.37-11.28-13.62-14.12-14.07,3.61,5.85,8.31,10.52,14.12,14.07ZM11.7,142.27c2.39-2.96,4.75-5.89,7.17-8.88-.17.02-.27.01-.36.03-1.35.32-2.63.83-3.84,1.5-1.21.67-2.28,1.5-3.09,2.65-1.11,1.59-1.08,3.34.11,4.7Z"/>
        <path d="M44.9,170.83c-.89-.22-1.73-.51-2.46-1.1-1.47-1.18-2.26-3.36-1.58-5.29.75-2.09,1.87-3.98,3.04-5.84.26-.42.54-.84.83-1.24.43-.58,1.24-.61,1.64-.02,1.52,2.23,2.95,4.52,3.89,7.08.92,2.5-.62,5.47-3.36,6.24-.21.06-.43.12-.65.18h-1.37Z"/>
      </g>
      <path d="M49.04,69.76c-.2.51-.59.76-1.1.92-3.5,1.06-7,2.14-10.5,3.21-2.92.89-4.81,2.78-5.7,5.7-1.07,3.51-2.15,7.02-3.23,10.53-.07.22-.15.46-.29.64-.55.7-1.56.53-1.95-.33-.39-.86-.75-1.72-1.13-2.59-4.83-11.11-9.66-22.22-14.48-33.34-.1-.23-.21-.47-.24-.71-.08-.63.31-.99.82-1.25h.6c.14.07.28.15.43.21,11.86,5.15,23.72,10.31,35.58,15.46.49.21.95.44,1.2.94v.6Z"/>
      <path d="M22.5,304.09c.24,0,.48,0,.72-.02,3.24-.11,5.85,2.04,6.43,5.3.97,5.49,1.94,10.98,2.9,16.48.06.33.18.44.5.5,1.82.3,3.64.63,5.45.95.11.02.21.03.24.04.4-.77.72-1.54,1.16-2.23,1.78-2.74,5.33-3.96,8.43-2.95,5.1,1.66,6.91,7.71,3.57,11.92-1.94,2.45-5.54,3.4-8.46,2.25-2.05-.81-3.5-2.23-4.33-4.27-.11-.26-.24-.37-.51-.42-2.28-.39-4.55-.79-6.83-1.19-.12-.02-.24-.03-.4-.06.01.14.02.26.04.37.4,2.29.81,4.58,1.2,6.87.05.28.16.41.42.51,4.54,1.87,6.15,7.14,3.43,11.25-2.38,3.59-7.68,4.28-10.98,1.49-2.87-2.42-3.53-6.59-1.58-9.72.94-1.51,2.25-2.54,3.92-3.14.15-.05.31-.1.49-.16,0-.1,0-.19-.02-.28-.33-1.87-.67-3.74-.98-5.61-.05-.29-.18-.37-.44-.41-5.51-.96-11.01-1.93-16.52-2.91-3.26-.58-5.4-3.18-5.3-6.43,0-.24.01-.48.02-.72l.12-.12c.1.03.2.07.31.09,6.75,1.19,13.5,2.38,20.25,3.57.1.02.21.02.33.03-.02-.14-.03-.25-.05-.35-1.19-6.72-2.37-13.45-3.56-20.17-.02-.12-.07-.23-.1-.35l.12-.12ZM33.03,342.34c-1.49-1.47-3.88-1.57-5.46,0-1.57,1.57-1.52,3.94.01,5.49,1.49,1.5,3.96,1.49,5.46,0,1.51-1.5,1.5-3.99-.02-5.49ZM43.35,332.05c1.51,1.5,3.94,1.5,5.46,0,1.51-1.48,1.51-3.99,0-5.5-1.5-1.49-3.99-1.51-5.47,0-1.56,1.59-1.5,3.98,0,5.49Z"/>
      <path d="M47.88,221.34v8.91h-12.92v29.86h-10.61v-29.86h-12.97v-8.91h36.5Z"/>
    </g>
  </g>
</svg>