<?xml version="1.0" encoding="UTF-8"?>
<svg id="Layer_1" data-name="Layer 1" xmlns="http://www.w3.org/2000/svg" viewBox="0 0 519.34 46.77">
  <defs>
    <style>
      .cls-1 {
        fill: #231f20;
      }

      .cls-2 {
        opacity: .91;
      }
    </style>
  </defs>
  <g class="cls-2">
    <path class="cls-1" d="M0,.72h50.63v12.74H15.22v4.05h33.19v12.22H15.22v4.12h35.41v12.74H0V.72Z"/>
    <path class="cls-1" d="M117.59.72l-20.84,22.93,20.64,22.93h-20.51l-11.89-13-12.08,13h-20.51l20.84-22.93L52.59.72h20.51l11.95,13L97.07.72h20.51Z"/>
    <path class="cls-1" d="M140.58,0c1.96,0,3.89.09,5.78.26,1.89.17,3.92.49,6.08.95,2.16.46,4.16,1.06,6.01,1.8,1.85.74,3.66,1.72,5.42,2.94,1.76,1.22,3.27,2.62,4.51,4.21s2.23,3.52,2.97,5.78c.74,2.26,1.11,4.75,1.11,7.45,0,3.53-.48,6.62-1.44,9.28-.96,2.66-2.31,4.88-4.05,6.66-1.74,1.79-3.94,3.23-6.6,4.34-2.66,1.11-5.55,1.91-8.69,2.38-3.14.48-6.69.72-10.65.72-10.54,0-18.32-1.98-23.35-5.95-5.03-3.96-7.55-10.06-7.55-18.29,0-2.83.46-5.42,1.37-7.77s2.17-4.32,3.76-5.91c1.59-1.59,3.37-2.98,5.36-4.18,1.98-1.2,4.15-2.12,6.5-2.78s4.63-1.13,6.83-1.44c2.2-.3,4.41-.46,6.63-.46ZM141.17,34.75c4.75,0,8.35-.86,10.81-2.58,2.46-1.72,3.69-4.65,3.69-8.79,0-1.52-.22-2.91-.65-4.15-.44-1.24-1.06-2.26-1.86-3.07-.81-.81-1.68-1.49-2.61-2.06-.94-.57-1.98-.99-3.14-1.27-1.15-.28-2.24-.49-3.27-.62-1.02-.13-2.08-.2-3.17-.2s-2.07.08-3.07.23c-1,.15-2.05.38-3.14.69-1.09.3-2.09.75-3,1.34s-1.74,1.27-2.48,2.06c-.74.78-1.32,1.74-1.73,2.87-.41,1.13-.62,2.4-.62,3.79,0,2.66.51,4.86,1.54,6.6,1.02,1.74,2.58,3.04,4.67,3.89,2.09.85,4.77,1.27,8.04,1.27Z"/>
    <path class="cls-1" d="M203.03.85c3.53,0,6.59.08,9.18.23,2.59.15,4.96.39,7.12.72,2.15.33,3.95.8,5.39,1.41,1.44.61,2.68,1.32,3.72,2.12,1.05.81,1.86,1.82,2.45,3.04.59,1.22,1.01,2.55,1.27,3.99.26,1.44.39,3.13.39,5.09h-16.2c0-.7-.12-1.24-.36-1.63-.24-.39-.77-.77-1.6-1.14-.83-.37-2.13-.63-3.92-.78-1.79-.15-4.14-.23-7.06-.23-3.88,0-6.71.09-8.49.26-1.79.17-2.92.39-3.4.65-.48.26-.72.72-.72,1.37.04.57.64.95,1.8,1.14,1.15.2,4.63.53,10.42,1.01.09,0,.15.02.2.07,11.5.92,18.79,1.74,21.88,2.48,4.05.96,6.66,2.59,7.84,4.9.79,1.57,1.18,3.83,1.18,6.79,0,2.09-.14,3.81-.42,5.16-.28,1.35-.85,2.59-1.7,3.72-.85,1.13-1.95,2.01-3.3,2.65-1.35.63-3.22,1.17-5.62,1.6-2.4.44-5.13.73-8.2.88-3.07.15-6.89.23-11.46.23-3.13,0-5.85-.04-8.13-.13-2.29-.09-4.42-.24-6.4-.46-1.98-.22-3.63-.5-4.93-.85-1.31-.35-2.48-.83-3.53-1.44-1.04-.61-1.86-1.27-2.45-1.99-.59-.72-1.08-1.64-1.47-2.78-.39-1.13-.65-2.33-.78-3.59-.13-1.26-.2-2.76-.2-4.51h15.74c0,1,.27,1.71.82,2.12s1.7.72,3.46.91c1.76.2,4.63.29,8.59.29h1.57c4.96,0,7.98-.09,9.05-.26s1.6-.74,1.6-1.7c0-.57-.37-.94-1.11-1.11-.74-.17-2.79-.37-6.14-.59-2.44-.17-4.46-.33-6.07-.46-2.92-.26-5.13-.47-6.63-.62-1.5-.15-3.35-.36-5.55-.62-2.2-.26-3.85-.54-4.97-.85-1.11-.3-2.4-.71-3.85-1.21-1.46-.5-2.53-1.07-3.2-1.7-.68-.63-1.37-1.39-2.09-2.29-.72-.89-1.21-1.92-1.47-3.07-.26-1.15-.39-2.45-.39-3.89,0-1.74.12-3.27.36-4.57.24-1.31.65-2.47,1.24-3.49s1.24-1.91,1.96-2.65c.72-.74,1.7-1.37,2.94-1.89,1.24-.52,2.52-.94,3.82-1.24,1.31-.3,2.95-.54,4.93-.72,1.98-.17,3.93-.28,5.85-.33,1.92-.04,4.27-.07,7.06-.07Z"/>
    <path class="cls-1" d="M270.45.72c.87,0,1.7.02,2.48.06.78.04,1.88.19,3.3.42,1.42.24,2.7.59,3.85,1.05,1.15.46,2.38,1.12,3.69,1.99,1.31.87,2.41,1.91,3.3,3.1.89,1.2,1.63,2.74,2.22,4.64s.88,4.01.88,6.34-.27,4.45-.82,6.37c-.54,1.92-1.25,3.52-2.12,4.8-.87,1.29-1.92,2.42-3.14,3.4-1.22.98-2.42,1.74-3.59,2.29-1.18.54-2.41.98-3.69,1.31-1.29.33-2.38.54-3.3.65-.91.11-1.76.16-2.55.16h-17.51v9.28h-15.22V.72h32.21ZM269.99,23.78c4.01,0,6.01-1.65,6.01-4.96,0-.87-.16-1.61-.49-2.22-.33-.61-.7-1.06-1.11-1.34-.41-.28-.95-.51-1.6-.69-.65-.17-1.19-.28-1.6-.33s-.9-.07-1.47-.07h-16.27v9.6h16.53Z"/>
    <path class="cls-1" d="M337.4.72h15.22v45.86h-15.22v-15.94h-27.31v15.94h-15.22V.72h15.22v15.87h27.31V.72Z"/>
    <path class="cls-1" d="M357.52.72h50.63v12.74h-35.41v4.05h33.19v12.22h-33.19v4.12h35.41v12.74h-50.63V.72Z"/>
    <path class="cls-1" d="M465.7,17.57c0,7.23-2.81,12.39-8.43,15.48l9.41,13.52-17.57-.07-7.84-10.78h-13.78v10.84h-15.22V.72h33.71c.87,0,1.7.02,2.48.06.78.04,1.88.19,3.3.42,1.41.24,2.7.57,3.85.98s2.38,1.04,3.69,1.89c1.31.85,2.41,1.85,3.3,3,.89,1.15,1.63,2.62,2.22,4.41.59,1.79.88,3.81.88,6.08ZM444.54,22.34c3.79,0,5.68-1.44,5.68-4.31,0-2.61-1.98-3.92-5.95-3.92h-16.79v8.23h17.05Z"/>
    <path class="cls-1" d="M468.71.72h50.63v12.74h-35.41v4.05h33.19v12.22h-33.19v4.12h35.41v12.74h-50.63V.72Z"/>
  </g>
</svg>